<svg width="500" height="500" viewBox="0 0 500 500" fill="none" xmlns="http://www.w3.org/2000/svg">
<path d="M500 382.396H0V382.646H500V382.396Z" fill="#EBEBEB"/>
<path d="M449.899 398.492H416.777V398.742H449.899V398.492Z" fill="#EBEBEB"/>
<path d="M331.22 401.207H322.527V401.457H331.22V401.207Z" fill="#EBEBEB"/>
<path d="M415.778 389.207H396.586V389.457H415.778V389.207Z" fill="#EBEBEB"/>
<path d="M95.6539 390.887H52.4609V391.137H95.6539V390.887Z" fill="#EBEBEB"/>
<path d="M110.888 390.887H104.555V391.137H110.888V390.887Z" fill="#EBEBEB"/>
<path d="M225.149 395.109H131.473V395.359H225.149V395.109Z" fill="#EBEBEB"/>
<path d="M237.014 337.799H43.915C40.768 337.799 38.207 335.238 38.207 332.091V60.6592C38.207 57.5122 40.768 54.9512 43.915 54.9512H237.014C240.16 54.9512 242.721 57.5122 242.721 60.6592V332.091C242.721 335.238 240.16 337.799 237.014 337.799ZM43.915 55.2022C40.905 55.2022 38.457 57.6502 38.457 60.6602V332.092C38.457 335.102 40.905 337.55 43.915 337.55H237.014C240.023 337.55 242.471 335.102 242.471 332.092V60.6592C242.471 57.6502 240.023 55.2012 237.014 55.2012L43.915 55.2022Z" fill="#EBEBEB"/>
<path d="M453.309 337.799H260.211C257.064 337.799 254.504 335.238 254.504 332.091V60.6592C254.504 57.5122 257.065 54.9512 260.211 54.9512H453.309C456.457 54.9512 459.017 57.5122 459.017 60.6592V332.091C459.018 335.238 456.457 337.799 453.309 337.799ZM260.211 55.2022C257.202 55.2022 254.754 57.6502 254.754 60.6602V332.092C254.754 335.102 257.202 337.55 260.211 337.55H453.309C456.319 337.55 458.767 335.102 458.767 332.092V60.6592C458.767 57.6502 456.319 55.2012 453.309 55.2012L260.211 55.2022Z" fill="#EBEBEB"/>
<path d="M204.604 151.51H171.23V174.237H204.604V151.51Z" fill="#E6E6E6"/>
<path d="M218.379 159.131H192.102V177.025H218.379V159.131Z" fill="#EBEBEB"/>
<path d="M151.29 177.052C155.128 177.052 158.24 173.941 158.24 170.102C158.24 166.264 155.128 163.152 151.29 163.152C147.451 163.152 144.34 166.264 144.34 170.102C144.34 173.941 147.451 177.052 151.29 177.052Z" fill="#E6E6E6"/>
<path d="M116.657 142.379L115.699 142.666L124.295 171.368L125.253 171.081L116.657 142.379Z" fill="#E0E0E0"/>
<path d="M127.025 141.049L117.316 171.07L118.268 171.378L127.976 141.356L127.025 141.049Z" fill="#E0E0E0"/>
<path d="M120.967 138.801L119.969 138.852L121.666 172.346L122.664 172.295L120.967 138.801Z" fill="#E0E0E0"/>
<path d="M128.732 159.664H115.602V175.529H128.732V159.664Z" fill="#EBEBEB"/>
<path d="M68.8813 382.568H233.402L233.402 174.236L68.8813 174.236L68.8813 382.568Z" fill="#F0F0F0"/>
<path d="M74.6989 226.379L227.59 226.379V181.83L74.6989 181.83V226.379Z" fill="#E0E0E0"/>
<path d="M218.905 226.379H227.59V189.042H218.905V226.379Z" fill="#EBEBEB"/>
<path d="M176.909 226.379H185.594V189.042H176.909V226.379Z" fill="#EBEBEB"/>
<path d="M122.882 224.902L131.441 226.377L137.781 189.581L129.222 188.107L122.882 224.902Z" fill="#EBEBEB"/>
<path d="M208.143 226.379H216.828V193.962H208.143V226.379Z" fill="#EBEBEB"/>
<path d="M188.182 226.379H196.867V193.962H188.182V226.379Z" fill="#EBEBEB"/>
<path d="M137.792 226.379H146.477V193.962H137.792V226.379Z" fill="#EBEBEB"/>
<path d="M158.467 224.495L166.945 226.379L173.977 194.733L165.498 192.85L158.467 224.495Z" fill="#EBEBEB"/>
<path d="M200.634 226.379H204.977V187.188H200.634V226.379Z" fill="#EBEBEB"/>
<path d="M148.973 226.379H153.316V187.188H148.973V226.379Z" fill="#EBEBEB"/>
<path d="M227.59 233.432H74.6992V277.981H227.59V233.432Z" fill="#E0E0E0"/>
<path d="M83.3842 240.645H74.6992V277.982H83.3842V240.645Z" fill="#EBEBEB"/>
<path d="M125.38 240.645H116.695V277.982H125.38V240.645Z" fill="#EBEBEB"/>
<path d="M173.051 239.725L164.492 241.199L170.832 277.995L179.391 276.52L173.051 239.725Z" fill="#EBEBEB"/>
<path d="M94.1459 245.564H85.4609V277.981H94.1459V245.564Z" fill="#EBEBEB"/>
<path d="M114.111 245.564H105.426V277.981H114.111V245.564Z" fill="#EBEBEB"/>
<path d="M164.497 245.564H155.812V277.981H164.497V245.564Z" fill="#EBEBEB"/>
<path d="M135.478 245.999L127 247.883L134.031 279.528L142.51 277.645L135.478 245.999Z" fill="#EBEBEB"/>
<path d="M101.656 238.791H97.3125V277.982H101.656V238.791Z" fill="#EBEBEB"/>
<path d="M153.316 238.791H148.973V277.982H153.316V238.791Z" fill="#EBEBEB"/>
<path d="M218.905 277.98H227.59V240.643H218.905V277.98Z" fill="#EBEBEB"/>
<path d="M208.143 277.98H216.828V245.563H208.143V277.98Z" fill="#EBEBEB"/>
<path d="M188.182 277.98H196.867V245.563H188.182V277.98Z" fill="#EBEBEB"/>
<path d="M200.634 277.98H204.977V238.789H200.634V277.98Z" fill="#EBEBEB"/>
<path d="M74.6989 329.584H227.59V285.035H74.6989V329.584Z" fill="#E0E0E0"/>
<path d="M131.151 329.584H139.836V292.247H131.151V329.584Z" fill="#EBEBEB"/>
<path d="M77.1206 328.103L85.6797 329.578L92.0195 292.783L83.4604 291.308L77.1206 328.103Z" fill="#EBEBEB"/>
<path d="M162.385 329.584H171.07V297.167H162.385V329.584Z" fill="#EBEBEB"/>
<path d="M142.424 329.584H151.109V297.167H142.424V329.584Z" fill="#EBEBEB"/>
<path d="M92.0337 329.584H100.719V297.167H92.0337V329.584Z" fill="#EBEBEB"/>
<path d="M112.705 327.698L121.184 329.582L128.215 297.937L119.737 296.053L112.705 327.698Z" fill="#EBEBEB"/>
<path d="M154.876 329.584H159.219V290.393H154.876V329.584Z" fill="#EBEBEB"/>
<path d="M103.216 329.584H107.559V290.393H103.216V329.584Z" fill="#EBEBEB"/>
<path d="M177.039 328.107L185.598 329.582L191.937 292.786L183.378 291.312L177.039 328.107Z" fill="#EBEBEB"/>
<path d="M191.956 329.584H200.641V297.167H191.956V329.584Z" fill="#EBEBEB"/>
<path d="M212.627 327.7L221.105 329.584L228.137 297.939L219.658 296.055L212.627 327.7Z" fill="#EBEBEB"/>
<path d="M203.137 329.584H207.48V290.393H203.137V329.584Z" fill="#EBEBEB"/>
<path d="M94.3594 145.425C94.3594 145.425 99.2474 139.607 102.376 142.321C105.505 145.034 103.922 150.79 100.314 150.976C96.7064 151.161 94.3594 149.157 94.3594 149.157V145.425Z" fill="#EBEBEB"/>
<path d="M74.4152 130.671C74.4152 130.671 70.3092 126.37 67.7672 127.099C65.2252 127.828 65.4902 138.104 73.3742 133.944L74.4152 130.671Z" fill="#F0F0F0"/>
<path d="M89.0808 162.757C89.0808 162.757 102.573 144.3 91.6228 140.561C80.6728 136.822 78.7178 155.411 81.8468 160.586C84.9758 165.761 89.0808 162.757 89.0808 162.757Z" fill="#F0F0F0"/>
<path d="M82.8247 124.969C82.8247 124.969 74.4557 105.537 86.8527 104.95C99.2497 104.363 100.6 124.218 86.3347 127.098L82.8247 124.969Z" fill="#F0F0F0"/>
<path d="M85.7928 140.88C85.7928 140.88 89.8628 123.722 82.0408 122.353C74.2198 120.984 66.4988 136.486 82.6778 144.28C82.6778 144.28 85.4538 142.559 85.7928 140.88Z" fill="#EBEBEB"/>
<path d="M98.7926 160.141H76.1406L78.0326 174.634H96.9016L98.7926 160.141Z" fill="#E0E0E0"/>
<path d="M87.0117 123.582C90.4067 120.01 93.3077 115.253 92.5837 110.157C92.5667 109.841 92.4947 109.406 92.4047 109.092C91.7417 106.403 93.4427 111.245 93.1847 112.303C93.2227 116.785 90.5137 120.964 87.0117 123.582Z" fill="#E0E0E0"/>
<path d="M89.9788 106.904C85.1038 108.717 83.0538 113.861 83.1628 118.714C83.1788 119.417 83.2168 120.122 83.2138 120.837C83.0698 120.142 82.9668 119.437 82.8418 118.73C82.2248 113.69 84.5888 107.987 89.9788 106.904Z" fill="#E0E0E0"/>
<path d="M80.4995 123.582C77.1655 125.326 75.4295 129.599 76.5135 133.139C77.2935 135.827 79.1375 138.167 80.9895 140.255C81.6155 140.975 82.2895 141.653 82.9755 142.323C81.4245 141.19 80.0185 139.856 78.7765 138.373C77.2485 136.529 75.8695 134.32 75.5955 131.86C75.3275 128.473 77.2155 124.737 80.4995 123.582Z" fill="#E0E0E0"/>
<path d="M82.8239 124.969C82.5329 127.441 81.9449 130.376 83.1589 132.615C83.9389 133.779 84.2179 135.224 84.2469 136.56C84.2769 137.916 84.1299 139.262 83.8009 140.562C83.8439 138.013 84.0599 135.151 82.6029 132.964C81.3079 130.478 81.9959 127.483 82.8239 124.969Z" fill="#E0E0E0"/>
<path d="M88.3279 142.32C87.1959 143.15 86.9269 144.685 86.5029 145.948C85.4149 149.986 84.7099 154.121 84.0289 158.249C83.9319 154.677 85.1079 144.133 88.3279 142.32Z" fill="#E0E0E0"/>
<path d="M92.1581 142.918C94.2561 147.081 93.6311 152.509 90.5021 155.998C90.0661 156.494 89.5601 156.926 89.0781 157.364C92.5621 153.432 93.6581 147.932 92.1581 142.918Z" fill="#E0E0E0"/>
<path d="M71.2314 132.765C69.8314 133.354 67.7644 132.591 67.5234 130.973C68.5874 132.017 69.7974 132.358 71.2314 132.765Z" fill="#E0E0E0"/>
<path d="M72.0694 129.93C70.7234 129.332 69.5524 128.623 68.1094 129.197C69.0814 127.676 71.4174 128.551 72.0694 129.93Z" fill="#E0E0E0"/>
<path d="M96.5938 146.294C97.3637 144.513 100.19 142.293 101.84 144.28C99.7577 143.314 98.1988 145.196 96.5938 146.294Z" fill="#E0E0E0"/>
<path d="M96.5938 149.157C98.8347 148.903 101.831 149.427 103.023 147.088C102.749 149.99 98.6688 149.933 96.5938 149.157Z" fill="#E0E0E0"/>
<path d="M253.076 427.56C367.607 427.56 460.453 422.491 460.453 416.237C460.453 409.984 367.607 404.914 253.076 404.914C138.545 404.914 45.6992 409.984 45.6992 416.237C45.6992 422.491 138.545 427.56 253.076 427.56Z" fill="#F5F5F5"/>
<path d="M436.17 104.939H278.18V253.98H436.17V104.939Z" fill="#407BFF"/>
<path opacity="0.7" d="M436.17 104.939H278.18V253.98H436.17V104.939Z" fill="white"/>
<path d="M436.17 107.793H281.281V250.844H436.17V107.793Z" fill="#263238"/>
<path opacity="0.2" d="M287.003 198.565V186.549H290.436V178.539H295.013V166.523H296.157V178.539H300.735V186.549H304.168V198.565H310.461V201.998H313.322V215.157H313.894V196.276H315.611V208.291H317.327V179.683H318.472V191.699H323.049V187.694H324.766V171.101H328.199V154.508H329.343V156.797H352.802V149.931H356.807V123.611H358.523V149.931H364.245V156.797H366.534V191.127H378.549V180.828H374.544V179.111H378.549V176.25H389.992V149.931H392.853V145.925H406.585V149.931H408.302V186.549H414.596V203.142H418.028V189.982H420.889V186.549H427.183V174.534H430.616V166.523H434.621V154.508H436.17V250.845H281.281V198.565H287.003Z" fill="white"/>
<g opacity="0.2">
<path d="M344.043 158.59H342.422V160.211H344.043V158.59Z" fill="white"/>
<path d="M344.043 161.307H342.422V162.928H344.043V161.307Z" fill="white"/>
<path d="M344.043 172.178H342.422V173.799H344.043V172.178Z" fill="white"/>
<path d="M344.043 174.896H342.422V176.517H344.043V174.896Z" fill="white"/>
<path d="M344.043 177.613H342.422V179.234H344.043V177.613Z" fill="white"/>
<path d="M344.043 185.768H342.422V187.389H344.043V185.768Z" fill="white"/>
<path d="M344.043 188.484H342.422V190.105H344.043V188.484Z" fill="white"/>
<path d="M346.617 169.461H344.996V171.082H346.617V169.461Z" fill="white"/>
<path d="M346.617 172.178H344.996V173.799H346.617V172.178Z" fill="white"/>
<path d="M346.617 174.896H344.996V176.517H346.617V174.896Z" fill="white"/>
<path d="M346.617 177.613H344.996V179.234H346.617V177.613Z" fill="white"/>
<path d="M346.617 180.332H344.996V181.953H346.617V180.332Z" fill="white"/>
<path d="M346.617 185.768H344.996V187.389H346.617V185.768Z" fill="white"/>
<path d="M346.617 188.484H344.996V190.105H346.617V188.484Z" fill="white"/>
<path d="M349.191 158.59H347.57V160.211H349.191V158.59Z" fill="white"/>
<path d="M349.191 161.307H347.57V162.928H349.191V161.307Z" fill="white"/>
<path d="M349.191 164.025H347.57V165.646H349.191V164.025Z" fill="white"/>
<path d="M349.191 166.744H347.57V168.365H349.191V166.744Z" fill="white"/>
<path d="M349.191 169.461H347.57V171.082H349.191V169.461Z" fill="white"/>
<path d="M349.191 172.178H347.57V173.799H349.191V172.178Z" fill="white"/>
<path d="M349.191 174.896H347.57V176.517H349.191V174.896Z" fill="white"/>
<path d="M349.191 177.613H347.57V179.234H349.191V177.613Z" fill="white"/>
<path d="M349.191 180.332H347.57V181.953H349.191V180.332Z" fill="white"/>
<path d="M349.191 183.051H347.57V184.672H349.191V183.051Z" fill="white"/>
<path d="M349.191 188.484H347.57V190.105H349.191V188.484Z" fill="white"/>
<path d="M351.766 158.59H350.145V160.211H351.766V158.59Z" fill="white"/>
<path d="M351.766 161.307H350.145V162.928H351.766V161.307Z" fill="white"/>
<path d="M351.766 164.025H350.145V165.646H351.766V164.025Z" fill="white"/>
<path d="M351.766 166.744H350.145V168.365H351.766V166.744Z" fill="white"/>
<path d="M351.766 169.461H350.145V171.082H351.766V169.461Z" fill="white"/>
<path d="M351.766 172.178H350.145V173.799H351.766V172.178Z" fill="white"/>
<path d="M351.766 174.896H350.145V176.517H351.766V174.896Z" fill="white"/>
<path d="M351.766 199.355H350.145V200.976H351.766V199.355Z" fill="white"/>
<path d="M354.34 158.59H352.719V160.211H354.34V158.59Z" fill="white"/>
<path d="M354.34 161.307H352.719V162.928H354.34V161.307Z" fill="white"/>
<path d="M354.34 164.025H352.719V165.646H354.34V164.025Z" fill="white"/>
<path d="M354.34 166.744H352.719V168.365H354.34V166.744Z" fill="white"/>
<path d="M354.34 169.461H352.719V171.082H354.34V169.461Z" fill="white"/>
<path d="M354.34 172.178H352.719V173.799H354.34V172.178Z" fill="white"/>
<path d="M354.34 174.896H352.719V176.517H354.34V174.896Z" fill="white"/>
<path d="M354.34 177.613H352.719V179.234H354.34V177.613Z" fill="white"/>
<path d="M354.34 193.922H352.719V195.543H354.34V193.922Z" fill="white"/>
<path d="M354.34 196.639H352.719V198.26H354.34V196.639Z" fill="white"/>
<path d="M354.34 199.355H352.719V200.976H354.34V199.355Z" fill="white"/>
<path d="M354.34 202.074H352.719V203.695H354.34V202.074Z" fill="white"/>
<path d="M354.34 212.945H352.719V214.566H354.34V212.945Z" fill="white"/>
<path d="M356.914 158.59H355.293V160.211H356.914V158.59Z" fill="white"/>
<path d="M356.914 161.307H355.293V162.928H356.914V161.307Z" fill="white"/>
<path d="M356.914 164.025H355.293V165.646H356.914V164.025Z" fill="white"/>
<path d="M356.914 166.744H355.293V168.365H356.914V166.744Z" fill="white"/>
<path d="M356.914 169.461H355.293V171.082H356.914V169.461Z" fill="white"/>
<path d="M356.914 172.178H355.293V173.799H356.914V172.178Z" fill="white"/>
<path d="M356.914 174.896H355.293V176.517H356.914V174.896Z" fill="white"/>
<path d="M356.914 177.613H355.293V179.234H356.914V177.613Z" fill="white"/>
<path d="M356.914 180.332H355.293V181.953H356.914V180.332Z" fill="white"/>
<path d="M356.914 183.051H355.293V184.672H356.914V183.051Z" fill="white"/>
<path d="M356.914 191.203H355.293V192.824H356.914V191.203Z" fill="white"/>
<path d="M356.914 193.922H355.293V195.543H356.914V193.922Z" fill="white"/>
<path d="M356.914 196.639H355.293V198.26H356.914V196.639Z" fill="white"/>
<path d="M356.914 199.355H355.293V200.976H356.914V199.355Z" fill="white"/>
<path d="M356.914 202.074H355.293V203.695H356.914V202.074Z" fill="white"/>
<path d="M356.914 212.945H355.293V214.566H356.914V212.945Z" fill="white"/>
<path d="M359.488 158.59H357.867V160.211H359.488V158.59Z" fill="white"/>
<path d="M359.488 161.307H357.867V162.928H359.488V161.307Z" fill="white"/>
<path d="M359.488 164.025H357.867V165.646H359.488V164.025Z" fill="white"/>
<path d="M359.488 166.744H357.867V168.365H359.488V166.744Z" fill="white"/>
<path d="M359.488 169.461H357.867V171.082H359.488V169.461Z" fill="white"/>
<path d="M359.488 172.178H357.867V173.799H359.488V172.178Z" fill="white"/>
<path d="M359.488 174.896H357.867V176.517H359.488V174.896Z" fill="white"/>
<path d="M359.488 177.613H357.867V179.234H359.488V177.613Z" fill="white"/>
<path d="M359.488 180.332H357.867V181.953H359.488V180.332Z" fill="white"/>
<path d="M359.488 183.051H357.867V184.672H359.488V183.051Z" fill="white"/>
<path d="M359.488 185.768H357.867V187.389H359.488V185.768Z" fill="white"/>
<path d="M359.488 188.484H357.867V190.105H359.488V188.484Z" fill="white"/>
<path d="M359.488 191.203H357.867V192.824H359.488V191.203Z" fill="white"/>
<path d="M359.488 193.922H357.867V195.543H359.488V193.922Z" fill="white"/>
<path d="M359.488 196.639H357.867V198.26H359.488V196.639Z" fill="white"/>
<path d="M359.488 199.355H357.867V200.976H359.488V199.355Z" fill="white"/>
<path d="M359.488 202.074H357.867V203.695H359.488V202.074Z" fill="white"/>
<path d="M359.488 204.793H357.867V206.414H359.488V204.793Z" fill="white"/>
<path d="M362.066 158.59H360.445V160.211H362.066V158.59Z" fill="white"/>
<path d="M362.066 161.307H360.445V162.928H362.066V161.307Z" fill="white"/>
<path d="M362.066 164.025H360.445V165.646H362.066V164.025Z" fill="white"/>
<path d="M362.066 166.744H360.445V168.365H362.066V166.744Z" fill="white"/>
<path d="M362.066 169.461H360.445V171.082H362.066V169.461Z" fill="white"/>
<path d="M362.066 172.178H360.445V173.799H362.066V172.178Z" fill="white"/>
<path d="M362.066 174.896H360.445V176.517H362.066V174.896Z" fill="white"/>
<path d="M362.066 177.613H360.445V179.234H362.066V177.613Z" fill="white"/>
<path d="M362.066 180.332H360.445V181.953H362.066V180.332Z" fill="white"/>
<path d="M362.066 183.051H360.445V184.672H362.066V183.051Z" fill="white"/>
<path d="M362.066 191.203H360.445V192.824H362.066V191.203Z" fill="white"/>
<path d="M362.066 193.922H360.445V195.543H362.066V193.922Z" fill="white"/>
<path d="M362.066 196.639H360.445V198.26H362.066V196.639Z" fill="white"/>
<path d="M362.066 199.355H360.445V200.976H362.066V199.355Z" fill="white"/>
<path d="M364.641 158.59H363.02V160.211H364.641V158.59Z" fill="white"/>
<path d="M364.641 161.307H363.02V162.928H364.641V161.307Z" fill="white"/>
<path d="M364.641 164.025H363.02V165.646H364.641V164.025Z" fill="white"/>
<path d="M364.641 166.744H363.02V168.365H364.641V166.744Z" fill="white"/>
<path d="M364.641 169.461H363.02V171.082H364.641V169.461Z" fill="white"/>
<path d="M364.641 172.178H363.02V173.799H364.641V172.178Z" fill="white"/>
<path d="M364.641 174.896H363.02V176.517H364.641V174.896Z" fill="white"/>
<path d="M364.641 177.613H363.02V179.234H364.641V177.613Z" fill="white"/>
<path d="M364.641 180.332H363.02V181.953H364.641V180.332Z" fill="white"/>
<path d="M364.641 183.051H363.02V184.672H364.641V183.051Z" fill="white"/>
<path d="M364.641 191.203H363.02V192.824H364.641V191.203Z" fill="white"/>
<path d="M364.641 193.922H363.02V195.543H364.641V193.922Z" fill="white"/>
<path d="M364.641 196.639H363.02V198.26H364.641V196.639Z" fill="white"/>
<path d="M393.629 151.533H392.008V153.154H393.629V151.533Z" fill="white"/>
<path d="M393.629 154.252H392.008V155.873H393.629V154.252Z" fill="white"/>
<path d="M393.629 156.969H392.008V158.59H393.629V156.969Z" fill="white"/>
<path d="M393.629 159.686H392.008V161.307H393.629V159.686Z" fill="white"/>
<path d="M393.629 162.404H392.008V164.025H393.629V162.404Z" fill="white"/>
<path d="M393.629 165.123H392.008V166.744H393.629V165.123Z" fill="white"/>
<path d="M393.629 167.84H392.008V169.461H393.629V167.84Z" fill="white"/>
<path d="M393.629 170.557H392.008V172.178H393.629V170.557Z" fill="white"/>
<path d="M393.629 178.711H392.008V180.332H393.629V178.711Z" fill="white"/>
<path d="M393.629 181.428H392.008V183.049H393.629V181.428Z" fill="white"/>
<path d="M396.203 151.533H394.582V153.154H396.203V151.533Z" fill="white"/>
<path d="M396.203 154.252H394.582V155.873H396.203V154.252Z" fill="white"/>
<path d="M396.203 156.969H394.582V158.59H396.203V156.969Z" fill="white"/>
<path d="M396.203 159.686H394.582V161.307H396.203V159.686Z" fill="white"/>
<path d="M396.203 162.404H394.582V164.025H396.203V162.404Z" fill="white"/>
<path d="M396.203 165.123H394.582V166.744H396.203V165.123Z" fill="white"/>
<path d="M396.203 167.84H394.582V169.461H396.203V167.84Z" fill="white"/>
<path d="M396.203 170.557H394.582V172.178H396.203V170.557Z" fill="white"/>
<path d="M396.203 181.428H394.582V183.049H396.203V181.428Z" fill="white"/>
<path d="M398.777 151.533H397.156V153.154H398.777V151.533Z" fill="white"/>
<path d="M398.777 154.252H397.156V155.873H398.777V154.252Z" fill="white"/>
<path d="M398.777 156.969H397.156V158.59H398.777V156.969Z" fill="white"/>
<path d="M398.777 159.686H397.156V161.307H398.777V159.686Z" fill="white"/>
<path d="M398.777 162.404H397.156V164.025H398.777V162.404Z" fill="white"/>
<path d="M398.777 165.123H397.156V166.744H398.777V165.123Z" fill="white"/>
<path d="M398.777 167.84H397.156V169.461H398.777V167.84Z" fill="white"/>
<path d="M398.777 170.557H397.156V172.178H398.777V170.557Z" fill="white"/>
<path d="M401.351 151.533H399.73V153.154H401.351V151.533Z" fill="white"/>
<path d="M401.351 154.252H399.73V155.873H401.351V154.252Z" fill="white"/>
<path d="M401.351 156.969H399.73V158.59H401.351V156.969Z" fill="white"/>
<path d="M401.351 159.686H399.73V161.307H401.351V159.686Z" fill="white"/>
<path d="M401.351 162.404H399.73V164.025H401.351V162.404Z" fill="white"/>
<path d="M401.351 165.123H399.73V166.744H401.351V165.123Z" fill="white"/>
<path d="M401.351 170.557H399.73V172.178H401.351V170.557Z" fill="white"/>
<path d="M401.351 173.275H399.73V174.896H401.351V173.275Z" fill="white"/>
<path d="M401.351 181.428H399.73V183.049H401.351V181.428Z" fill="white"/>
<path d="M401.351 184.146H399.73V185.767H401.351V184.146Z" fill="white"/>
<path d="M401.351 186.863H399.73V188.484H401.351V186.863Z" fill="white"/>
<path d="M401.351 189.582H399.73V191.203H401.351V189.582Z" fill="white"/>
<path d="M401.351 192.301H399.73V193.922H401.351V192.301Z" fill="white"/>
<path d="M401.351 195.018H399.73V196.639H401.351V195.018Z" fill="white"/>
<path d="M401.351 197.734H399.73V199.355H401.351V197.734Z" fill="white"/>
<path d="M403.926 151.533H402.305V153.154H403.926V151.533Z" fill="white"/>
<path d="M403.926 154.252H402.305V155.873H403.926V154.252Z" fill="white"/>
<path d="M403.926 156.969H402.305V158.59H403.926V156.969Z" fill="white"/>
<path d="M403.926 159.686H402.305V161.307H403.926V159.686Z" fill="white"/>
<path d="M403.926 162.404H402.305V164.025H403.926V162.404Z" fill="white"/>
<path d="M403.926 165.123H402.305V166.744H403.926V165.123Z" fill="white"/>
<path d="M403.926 173.275H402.305V174.896H403.926V173.275Z" fill="white"/>
<path d="M403.926 175.994H402.305V177.615H403.926V175.994Z" fill="white"/>
<path d="M403.926 178.711H402.305V180.332H403.926V178.711Z" fill="white"/>
<path d="M403.926 181.428H402.305V183.049H403.926V181.428Z" fill="white"/>
<path d="M403.926 184.146H402.305V185.767H403.926V184.146Z" fill="white"/>
<path d="M403.926 186.863H402.305V188.484H403.926V186.863Z" fill="white"/>
<path d="M403.926 189.582H402.305V191.203H403.926V189.582Z" fill="white"/>
<path d="M403.926 192.301H402.305V193.922H403.926V192.301Z" fill="white"/>
<path d="M403.926 195.018H402.305V196.639H403.926V195.018Z" fill="white"/>
<path d="M403.926 197.734H402.305V199.355H403.926V197.734Z" fill="white"/>
<path d="M403.926 200.453H402.305V202.074H403.926V200.453Z" fill="white"/>
<path d="M403.926 205.889H402.305V207.51H403.926V205.889Z" fill="white"/>
<path d="M406.504 151.533H404.883V153.154H406.504V151.533Z" fill="white"/>
<path d="M406.504 154.252H404.883V155.873H406.504V154.252Z" fill="white"/>
<path d="M406.504 156.969H404.883V158.59H406.504V156.969Z" fill="white"/>
<path d="M406.504 159.686H404.883V161.307H406.504V159.686Z" fill="white"/>
<path d="M406.504 162.404H404.883V164.025H406.504V162.404Z" fill="white"/>
<path d="M406.504 165.123H404.883V166.744H406.504V165.123Z" fill="white"/>
<path d="M406.504 173.275H404.883V174.896H406.504V173.275Z" fill="white"/>
<path d="M406.504 175.994H404.883V177.615H406.504V175.994Z" fill="white"/>
<path d="M406.504 178.711H404.883V180.332H406.504V178.711Z" fill="white"/>
<path d="M406.504 181.428H404.883V183.049H406.504V181.428Z" fill="white"/>
<path d="M406.504 189.582H404.883V191.203H406.504V189.582Z" fill="white"/>
<path d="M406.504 192.301H404.883V193.922H406.504V192.301Z" fill="white"/>
<path d="M406.504 195.018H404.883V196.639H406.504V195.018Z" fill="white"/>
<path d="M406.504 197.734H404.883V199.355H406.504V197.734Z" fill="white"/>
<path d="M406.504 200.453H404.883V202.074H406.504V200.453Z" fill="white"/>
<path d="M406.504 205.889H404.883V207.51H406.504V205.889Z" fill="white"/>
<path d="M406.504 208.605H404.883V210.226H406.504V208.605Z" fill="white"/>
<path d="M429.867 176.805H428.246V178.426H429.867V176.805Z" fill="white"/>
<path d="M429.867 179.521H428.246V181.142H429.867V179.521Z" fill="white"/>
<path d="M429.867 182.238H428.246V183.859H429.867V182.238Z" fill="white"/>
<path d="M429.867 184.957H428.246V186.578H429.867V184.957Z" fill="white"/>
<path d="M429.867 187.676H428.246V189.297H429.867V187.676Z" fill="white"/>
<path d="M429.867 190.393H428.246V192.014H429.867V190.393Z" fill="white"/>
<path d="M429.867 193.109H428.246V194.73H429.867V193.109Z" fill="white"/>
<path d="M429.867 201.264H428.246V202.885H429.867V201.264Z" fill="white"/>
<path d="M429.867 203.98H428.246V205.601H429.867V203.98Z" fill="white"/>
<path d="M429.867 206.699H428.246V208.32H429.867V206.699Z" fill="white"/>
<path d="M432.441 176.805H430.82V178.426H432.441V176.805Z" fill="white"/>
<path d="M432.441 179.521H430.82V181.142H432.441V179.521Z" fill="white"/>
<path d="M432.441 182.238H430.82V183.859H432.441V182.238Z" fill="white"/>
<path d="M432.441 184.957H430.82V186.578H432.441V184.957Z" fill="white"/>
<path d="M432.441 187.676H430.82V189.297H432.441V187.676Z" fill="white"/>
<path d="M432.441 190.393H430.82V192.014H432.441V190.393Z" fill="white"/>
<path d="M432.441 193.109H430.82V194.73H432.441V193.109Z" fill="white"/>
<path d="M435.723 176.805H433.395V178.426H435.723V176.805Z" fill="white"/>
<path d="M435.723 179.521H433.395V181.142H435.723V179.521Z" fill="white"/>
<path d="M435.723 182.238H433.395V183.859H435.723V182.238Z" fill="white"/>
<path d="M435.723 184.957H433.395V186.578H435.723V184.957Z" fill="white"/>
<path d="M435.723 187.676H433.395V189.297H435.723V187.676Z" fill="white"/>
<path d="M435.723 190.393H433.395V192.014H435.723V190.393Z" fill="white"/>
<path d="M435.723 193.109H433.395V194.73H435.723V193.109Z" fill="white"/>
<path d="M293.406 180.332H291.785V181.953H293.406V180.332Z" fill="white"/>
<path d="M293.406 183.051H291.785V184.672H293.406V183.051Z" fill="white"/>
<path d="M293.406 185.768H291.785V187.389H293.406V185.768Z" fill="white"/>
<path d="M293.406 188.484H291.785V190.105H293.406V188.484Z" fill="white"/>
<path d="M293.406 191.203H291.785V192.824H293.406V191.203Z" fill="white"/>
<path d="M293.406 193.922H291.785V195.543H293.406V193.922Z" fill="white"/>
<path d="M293.406 196.639H291.785V198.26H293.406V196.639Z" fill="white"/>
<path d="M293.406 199.355H291.785V200.976H293.406V199.355Z" fill="white"/>
<path d="M293.406 202.074H291.785V203.695H293.406V202.074Z" fill="white"/>
<path d="M293.406 204.793H291.785V206.414H293.406V204.793Z" fill="white"/>
<path d="M293.406 207.51H291.785V209.131H293.406V207.51Z" fill="white"/>
<path d="M293.406 210.227H291.785V211.848H293.406V210.227Z" fill="white"/>
<path d="M293.406 212.945H291.785V214.566H293.406V212.945Z" fill="white"/>
<path d="M293.406 215.664H291.785V217.285H293.406V215.664Z" fill="white"/>
<path d="M293.406 218.381H291.785V220.002H293.406V218.381Z" fill="white"/>
<path d="M293.406 221.1H291.785V222.721H293.406V221.1Z" fill="white"/>
<path d="M293.406 223.816H291.785V225.437H293.406V223.816Z" fill="white"/>
<path d="M293.406 226.535H291.785V228.156H293.406V226.535Z" fill="white"/>
<path d="M293.406 229.252H291.785V230.873H293.406V229.252Z" fill="white"/>
<path d="M293.406 231.971H291.785V233.592H293.406V231.971Z" fill="white"/>
<path d="M295.98 180.332H294.359V181.953H295.98V180.332Z" fill="white"/>
<path d="M295.98 183.051H294.359V184.672H295.98V183.051Z" fill="white"/>
<path d="M295.98 185.768H294.359V187.389H295.98V185.768Z" fill="white"/>
<path d="M295.98 188.484H294.359V190.105H295.98V188.484Z" fill="white"/>
<path d="M295.98 191.203H294.359V192.824H295.98V191.203Z" fill="white"/>
<path d="M295.98 193.922H294.359V195.543H295.98V193.922Z" fill="white"/>
<path d="M295.98 196.639H294.359V198.26H295.98V196.639Z" fill="white"/>
<path d="M295.98 199.355H294.359V200.976H295.98V199.355Z" fill="white"/>
<path d="M295.98 202.074H294.359V203.695H295.98V202.074Z" fill="white"/>
<path d="M295.98 204.793H294.359V206.414H295.98V204.793Z" fill="white"/>
<path d="M295.98 207.51H294.359V209.131H295.98V207.51Z" fill="white"/>
<path d="M295.98 210.227H294.359V211.848H295.98V210.227Z" fill="white"/>
<path d="M295.98 212.945H294.359V214.566H295.98V212.945Z" fill="white"/>
<path d="M295.98 215.664H294.359V217.285H295.98V215.664Z" fill="white"/>
<path d="M295.98 218.381H294.359V220.002H295.98V218.381Z" fill="white"/>
<path d="M295.98 221.1H294.359V222.721H295.98V221.1Z" fill="white"/>
<path d="M295.98 223.816H294.359V225.437H295.98V223.816Z" fill="white"/>
<path d="M295.98 226.535H294.359V228.156H295.98V226.535Z" fill="white"/>
<path d="M298.555 180.332H296.934V181.953H298.555V180.332Z" fill="white"/>
<path d="M298.555 183.051H296.934V184.672H298.555V183.051Z" fill="white"/>
<path d="M298.555 185.768H296.934V187.389H298.555V185.768Z" fill="white"/>
<path d="M298.555 188.484H296.934V190.105H298.555V188.484Z" fill="white"/>
<path d="M298.555 191.203H296.934V192.824H298.555V191.203Z" fill="white"/>
<path d="M298.555 193.922H296.934V195.543H298.555V193.922Z" fill="white"/>
<path d="M298.555 196.639H296.934V198.26H298.555V196.639Z" fill="white"/>
<path d="M298.555 199.355H296.934V200.976H298.555V199.355Z" fill="white"/>
<path d="M298.555 202.074H296.934V203.695H298.555V202.074Z" fill="white"/>
<path d="M298.555 204.793H296.934V206.414H298.555V204.793Z" fill="white"/>
<path d="M298.555 207.51H296.934V209.131H298.555V207.51Z" fill="white"/>
<path d="M298.555 210.227H296.934V211.848H298.555V210.227Z" fill="white"/>
<path d="M298.555 212.945H296.934V214.566H298.555V212.945Z" fill="white"/>
<path d="M298.555 215.664H296.934V217.285H298.555V215.664Z" fill="white"/>
<path d="M298.555 218.381H296.934V220.002H298.555V218.381Z" fill="white"/>
<path d="M298.555 221.1H296.934V222.721H298.555V221.1Z" fill="white"/>
<path d="M298.555 223.816H296.934V225.437H298.555V223.816Z" fill="white"/>
<path d="M298.555 226.535H296.934V228.156H298.555V226.535Z" fill="white"/>
<path d="M283.773 200.168H282.152V201.789H283.773V200.168Z" fill="white"/>
<path d="M283.773 202.885H282.152V204.506H283.773V202.885Z" fill="white"/>
<path d="M283.773 205.602H282.152V207.223H283.773V205.602Z" fill="white"/>
<path d="M283.773 208.32H282.152V209.941H283.773V208.32Z" fill="white"/>
<path d="M283.773 211.039H282.152V212.66H283.773V211.039Z" fill="white"/>
<path d="M283.773 213.756H282.152V215.377H283.773V213.756Z" fill="white"/>
<path d="M283.773 216.475H282.152V218.096H283.773V216.475Z" fill="white"/>
<path d="M283.773 219.191H282.152V220.812H283.773V219.191Z" fill="white"/>
<path d="M283.773 221.91H282.152V223.531H283.773V221.91Z" fill="white"/>
<path d="M283.773 224.627H282.152V226.248H283.773V224.627Z" fill="white"/>
<path d="M283.773 227.346H282.152V228.967H283.773V227.346Z" fill="white"/>
<path d="M283.773 230.062H282.152V231.684H283.773V230.062Z" fill="white"/>
<path d="M283.773 232.779H282.152V234.4H283.773V232.779Z" fill="white"/>
<path d="M286.348 200.168H284.727V201.789H286.348V200.168Z" fill="white"/>
<path d="M286.348 202.885H284.727V204.506H286.348V202.885Z" fill="white"/>
<path d="M286.348 205.602H284.727V207.223H286.348V205.602Z" fill="white"/>
<path d="M286.348 208.32H284.727V209.941H286.348V208.32Z" fill="white"/>
<path d="M286.348 211.039H284.727V212.66H286.348V211.039Z" fill="white"/>
<path d="M286.348 213.756H284.727V215.377H286.348V213.756Z" fill="white"/>
<path d="M286.348 216.475H284.727V218.096H286.348V216.475Z" fill="white"/>
<path d="M286.348 219.191H284.727V220.812H286.348V219.191Z" fill="white"/>
<path d="M286.348 221.91H284.727V223.531H286.348V221.91Z" fill="white"/>
<path d="M286.348 224.627H284.727V226.248H286.348V224.627Z" fill="white"/>
<path d="M286.348 227.346H284.727V228.967H286.348V227.346Z" fill="white"/>
<path d="M286.348 230.062H284.727V231.684H286.348V230.062Z" fill="white"/>
<path d="M286.348 232.779H284.727V234.4H286.348V232.779Z" fill="white"/>
<path d="M288.922 200.168H287.301V201.789H288.922V200.168Z" fill="white"/>
<path d="M288.922 202.885H287.301V204.506H288.922V202.885Z" fill="white"/>
<path d="M288.922 205.602H287.301V207.223H288.922V205.602Z" fill="white"/>
<path d="M288.922 208.32H287.301V209.941H288.922V208.32Z" fill="white"/>
<path d="M288.922 211.039H287.301V212.66H288.922V211.039Z" fill="white"/>
<path d="M288.922 213.756H287.301V215.377H288.922V213.756Z" fill="white"/>
<path d="M288.922 216.475H287.301V218.096H288.922V216.475Z" fill="white"/>
<path d="M288.922 219.191H287.301V220.812H288.922V219.191Z" fill="white"/>
<path d="M288.922 221.91H287.301V223.531H288.922V221.91Z" fill="white"/>
<path d="M288.922 224.627H287.301V226.248H288.922V224.627Z" fill="white"/>
<path d="M288.922 227.346H287.301V228.967H288.922V227.346Z" fill="white"/>
<path d="M288.922 230.062H287.301V231.684H288.922V230.062Z" fill="white"/>
<path d="M288.922 232.779H287.301V234.4H288.922V232.779Z" fill="white"/>
<path d="M288.922 235.498H287.301V237.119H288.922V235.498Z" fill="white"/>
<path d="M303.226 200.979H301.605V202.6H303.226V200.979Z" fill="white"/>
<path d="M303.226 203.695H301.605V205.316H303.226V203.695Z" fill="white"/>
<path d="M303.226 206.414H301.605V208.035H303.226V206.414Z" fill="white"/>
<path d="M303.226 209.131H301.605V210.752H303.226V209.131Z" fill="white"/>
<path d="M303.226 211.85H301.605V213.471H303.226V211.85Z" fill="white"/>
<path d="M303.226 214.566H301.605V216.187H303.226V214.566Z" fill="white"/>
<path d="M303.226 217.285H301.605V218.906H303.226V217.285Z" fill="white"/>
<path d="M303.226 220.002H301.605V221.623H303.226V220.002Z" fill="white"/>
<path d="M303.226 222.721H301.605V224.342H303.226V222.721Z" fill="white"/>
<path d="M303.226 225.438H301.605V227.059H303.226V225.438Z" fill="white"/>
<path d="M303.226 233.592H301.605V235.213H303.226V233.592Z" fill="white"/>
<path d="M305.801 200.979H304.18V202.6H305.801V200.979Z" fill="white"/>
<path d="M305.801 203.695H304.18V205.316H305.801V203.695Z" fill="white"/>
<path d="M305.801 206.414H304.18V208.035H305.801V206.414Z" fill="white"/>
<path d="M305.801 209.131H304.18V210.752H305.801V209.131Z" fill="white"/>
<path d="M305.801 211.85H304.18V213.471H305.801V211.85Z" fill="white"/>
<path d="M305.801 214.566H304.18V216.187H305.801V214.566Z" fill="white"/>
<path d="M305.801 217.285H304.18V218.906H305.801V217.285Z" fill="white"/>
<path d="M305.801 220.002H304.18V221.623H305.801V220.002Z" fill="white"/>
<path d="M305.801 222.721H304.18V224.342H305.801V222.721Z" fill="white"/>
<path d="M305.801 230.873H304.18V232.494H305.801V230.873Z" fill="white"/>
<path d="M305.801 233.592H304.18V235.213H305.801V233.592Z" fill="white"/>
<path d="M308.375 200.979H306.754V202.6H308.375V200.979Z" fill="white"/>
<path d="M308.375 203.695H306.754V205.316H308.375V203.695Z" fill="white"/>
<path d="M308.375 206.414H306.754V208.035H308.375V206.414Z" fill="white"/>
<path d="M308.375 209.131H306.754V210.752H308.375V209.131Z" fill="white"/>
<path d="M308.375 211.85H306.754V213.471H308.375V211.85Z" fill="white"/>
<path d="M308.375 214.566H306.754V216.187H308.375V214.566Z" fill="white"/>
<path d="M308.375 217.285H306.754V218.906H308.375V217.285Z" fill="white"/>
<path d="M308.375 220.002H306.754V221.623H308.375V220.002Z" fill="white"/>
<path d="M308.375 228.154H306.754V229.775H308.375V228.154Z" fill="white"/>
<path d="M308.375 230.873H306.754V232.494H308.375V230.873Z" fill="white"/>
<path d="M308.375 233.592H306.754V235.213H308.375V233.592Z" fill="white"/>
<path d="M332.312 159.686H330.691V161.307H332.312V159.686Z" fill="white"/>
<path d="M332.312 162.404H330.691V164.025H332.312V162.404Z" fill="white"/>
<path d="M332.312 165.123H330.691V166.744H332.312V165.123Z" fill="white"/>
<path d="M332.312 167.84H330.691V169.461H332.312V167.84Z" fill="white"/>
<path d="M332.312 170.557H330.691V172.178H332.312V170.557Z" fill="white"/>
<path d="M332.312 173.275H330.691V174.896H332.312V173.275Z" fill="white"/>
<path d="M332.312 175.994H330.691V177.615H332.312V175.994Z" fill="white"/>
<path d="M332.312 178.711H330.691V180.332H332.312V178.711Z" fill="white"/>
<path d="M332.312 181.428H330.691V183.049H332.312V181.428Z" fill="white"/>
<path d="M332.312 184.146H330.691V185.767H332.312V184.146Z" fill="white"/>
<path d="M332.312 186.863H330.691V188.484H332.312V186.863Z" fill="white"/>
<path d="M332.312 189.582H330.691V191.203H332.312V189.582Z" fill="white"/>
<path d="M332.312 192.301H330.691V193.922H332.312V192.301Z" fill="white"/>
<path d="M332.312 195.018H330.691V196.639H332.312V195.018Z" fill="white"/>
<path d="M332.312 197.734H330.691V199.355H332.312V197.734Z" fill="white"/>
<path d="M332.312 200.453H330.691V202.074H332.312V200.453Z" fill="white"/>
<path d="M332.312 203.172H330.691V204.793H332.312V203.172Z" fill="white"/>
<path d="M332.312 208.605H330.691V210.226H332.312V208.605Z" fill="white"/>
<path d="M332.312 211.324H330.691V212.945H332.312V211.324Z" fill="white"/>
<path d="M332.312 214.043H330.691V215.664H332.312V214.043Z" fill="white"/>
<path d="M332.312 216.76H330.691V218.381H332.312V216.76Z" fill="white"/>
<path d="M332.312 219.477H330.691V221.098H332.312V219.477Z" fill="white"/>
<path d="M334.887 159.686H333.266V161.307H334.887V159.686Z" fill="white"/>
<path d="M334.887 162.404H333.266V164.025H334.887V162.404Z" fill="white"/>
<path d="M334.887 165.123H333.266V166.744H334.887V165.123Z" fill="white"/>
<path d="M334.887 167.84H333.266V169.461H334.887V167.84Z" fill="white"/>
<path d="M334.887 170.557H333.266V172.178H334.887V170.557Z" fill="white"/>
<path d="M334.887 173.275H333.266V174.896H334.887V173.275Z" fill="white"/>
<path d="M334.887 175.994H333.266V177.615H334.887V175.994Z" fill="white"/>
<path d="M334.887 178.711H333.266V180.332H334.887V178.711Z" fill="white"/>
<path d="M334.887 181.428H333.266V183.049H334.887V181.428Z" fill="white"/>
<path d="M334.887 184.146H333.266V185.767H334.887V184.146Z" fill="white"/>
<path d="M334.887 186.863H333.266V188.484H334.887V186.863Z" fill="white"/>
<path d="M334.887 189.582H333.266V191.203H334.887V189.582Z" fill="white"/>
<path d="M334.887 192.301H333.266V193.922H334.887V192.301Z" fill="white"/>
<path d="M334.887 195.018H333.266V196.639H334.887V195.018Z" fill="white"/>
<path d="M334.887 197.734H333.266V199.355H334.887V197.734Z" fill="white"/>
<path d="M334.887 200.453H333.266V202.074H334.887V200.453Z" fill="white"/>
<path d="M334.887 216.76H333.266V218.381H334.887V216.76Z" fill="white"/>
<path d="M334.887 219.477H333.266V221.098H334.887V219.477Z" fill="white"/>
<path d="M337.461 159.686H335.84V161.307H337.461V159.686Z" fill="white"/>
<path d="M337.461 162.404H335.84V164.025H337.461V162.404Z" fill="white"/>
<path d="M337.461 165.123H335.84V166.744H337.461V165.123Z" fill="white"/>
<path d="M337.461 167.84H335.84V169.461H337.461V167.84Z" fill="white"/>
<path d="M337.461 170.557H335.84V172.178H337.461V170.557Z" fill="white"/>
<path d="M337.461 173.275H335.84V174.896H337.461V173.275Z" fill="white"/>
<path d="M337.461 175.994H335.84V177.615H337.461V175.994Z" fill="white"/>
<path d="M337.461 178.711H335.84V180.332H337.461V178.711Z" fill="white"/>
<path d="M337.461 181.428H335.84V183.049H337.461V181.428Z" fill="white"/>
<path d="M337.461 184.146H335.84V185.767H337.461V184.146Z" fill="white"/>
<path d="M337.461 186.863H335.84V188.484H337.461V186.863Z" fill="white"/>
<path d="M337.461 189.582H335.84V191.203H337.461V189.582Z" fill="white"/>
<path d="M337.461 192.301H335.84V193.922H337.461V192.301Z" fill="white"/>
<path d="M337.461 195.018H335.84V196.639H337.461V195.018Z" fill="white"/>
<path d="M337.461 197.734H335.84V199.355H337.461V197.734Z" fill="white"/>
<path d="M337.461 200.453H335.84V202.074H337.461V200.453Z" fill="white"/>
<path d="M337.461 205.889H335.84V207.51H337.461V205.889Z" fill="white"/>
<path d="M337.461 208.605H335.84V210.226H337.461V208.605Z" fill="white"/>
<path d="M337.461 211.324H335.84V212.945H337.461V211.324Z" fill="white"/>
<path d="M337.461 214.043H335.84V215.664H337.461V214.043Z" fill="white"/>
<path d="M337.461 219.477H335.84V221.098H337.461V219.477Z" fill="white"/>
<path d="M322.965 193.922H321.344V195.543H322.965V193.922Z" fill="white"/>
<path d="M322.965 196.639H321.344V198.26H322.965V196.639Z" fill="white"/>
<path d="M322.965 199.355H321.344V200.976H322.965V199.355Z" fill="white"/>
<path d="M322.965 202.074H321.344V203.695H322.965V202.074Z" fill="white"/>
<path d="M322.965 204.793H321.344V206.414H322.965V204.793Z" fill="white"/>
<path d="M322.965 207.51H321.344V209.131H322.965V207.51Z" fill="white"/>
<path d="M322.965 210.227H321.344V211.848H322.965V210.227Z" fill="white"/>
<path d="M322.965 215.664H321.344V217.285H322.965V215.664Z" fill="white"/>
<path d="M322.965 218.381H321.344V220.002H322.965V218.381Z" fill="white"/>
<path d="M322.965 221.1H321.344V222.721H322.965V221.1Z" fill="white"/>
<path d="M322.965 223.816H321.344V225.437H322.965V223.816Z" fill="white"/>
<path d="M322.965 226.535H321.344V228.156H322.965V226.535Z" fill="white"/>
<path d="M322.965 229.252H321.344V230.873H322.965V229.252Z" fill="white"/>
<path d="M322.965 231.971H321.344V233.592H322.965V231.971Z" fill="white"/>
<path d="M322.965 234.688H321.344V236.309H322.965V234.688Z" fill="white"/>
<path d="M325.543 193.922H323.922V195.543H325.543V193.922Z" fill="white"/>
<path d="M325.543 196.639H323.922V198.26H325.543V196.639Z" fill="white"/>
<path d="M325.543 199.355H323.922V200.976H325.543V199.355Z" fill="white"/>
<path d="M325.543 202.074H323.922V203.695H325.543V202.074Z" fill="white"/>
<path d="M325.543 204.793H323.922V206.414H325.543V204.793Z" fill="white"/>
<path d="M325.543 207.51H323.922V209.131H325.543V207.51Z" fill="white"/>
<path d="M325.543 215.664H323.922V217.285H325.543V215.664Z" fill="white"/>
<path d="M325.543 218.381H323.922V220.002H325.543V218.381Z" fill="white"/>
<path d="M325.543 221.1H323.922V222.721H325.543V221.1Z" fill="white"/>
<path d="M325.543 223.816H323.922V225.437H325.543V223.816Z" fill="white"/>
<path d="M325.543 226.535H323.922V228.156H325.543V226.535Z" fill="white"/>
<path d="M325.543 229.252H323.922V230.873H325.543V229.252Z" fill="white"/>
<path d="M325.543 231.971H323.922V233.592H325.543V231.971Z" fill="white"/>
<path d="M325.543 234.688H323.922V236.309H325.543V234.688Z" fill="white"/>
<path d="M328.117 193.922H326.496V195.543H328.117V193.922Z" fill="white"/>
<path d="M328.117 196.639H326.496V198.26H328.117V196.639Z" fill="white"/>
<path d="M328.117 199.355H326.496V200.976H328.117V199.355Z" fill="white"/>
<path d="M328.117 202.074H326.496V203.695H328.117V202.074Z" fill="white"/>
<path d="M328.117 204.793H326.496V206.414H328.117V204.793Z" fill="white"/>
<path d="M328.117 207.51H326.496V209.131H328.117V207.51Z" fill="white"/>
<path d="M328.117 212.945H326.496V214.566H328.117V212.945Z" fill="white"/>
<path d="M328.117 215.664H326.496V217.285H328.117V215.664Z" fill="white"/>
<path d="M328.117 218.381H326.496V220.002H328.117V218.381Z" fill="white"/>
<path d="M328.117 221.1H326.496V222.721H328.117V221.1Z" fill="white"/>
<path d="M328.117 223.816H326.496V225.437H328.117V223.816Z" fill="white"/>
<path d="M328.117 226.535H326.496V228.156H328.117V226.535Z" fill="white"/>
<path d="M328.117 229.252H326.496V230.873H328.117V229.252Z" fill="white"/>
<path d="M328.117 231.971H326.496V233.592H328.117V231.971Z" fill="white"/>
<path d="M328.117 234.688H326.496V236.309H328.117V234.688Z" fill="white"/>
<path d="M382.375 178.711H380.754V180.332H382.375V178.711Z" fill="white"/>
<path d="M382.375 181.428H380.754V183.049H382.375V181.428Z" fill="white"/>
<path d="M382.375 184.146H380.754V185.767H382.375V184.146Z" fill="white"/>
<path d="M382.375 186.863H380.754V188.484H382.375V186.863Z" fill="white"/>
<path d="M382.375 189.582H380.754V191.203H382.375V189.582Z" fill="white"/>
<path d="M382.375 192.301H380.754V193.922H382.375V192.301Z" fill="white"/>
<path d="M382.375 195.018H380.754V196.639H382.375V195.018Z" fill="white"/>
<path d="M382.375 197.734H380.754V199.355H382.375V197.734Z" fill="white"/>
<path d="M382.375 200.453H380.754V202.074H382.375V200.453Z" fill="white"/>
<path d="M382.375 203.172H380.754V204.793H382.375V203.172Z" fill="white"/>
<path d="M382.375 205.889H380.754V207.51H382.375V205.889Z" fill="white"/>
<path d="M382.375 208.605H380.754V210.226H382.375V208.605Z" fill="white"/>
<path d="M382.375 211.324H380.754V212.945H382.375V211.324Z" fill="white"/>
<path d="M382.375 216.76H380.754V218.381H382.375V216.76Z" fill="white"/>
<path d="M382.375 219.477H380.754V221.098H382.375V219.477Z" fill="white"/>
<path d="M382.375 222.195H380.754V223.816H382.375V222.195Z" fill="white"/>
<path d="M382.375 224.914H380.754V226.535H382.375V224.914Z" fill="white"/>
<path d="M382.375 230.35H380.754V231.971H382.375V230.35Z" fill="white"/>
<path d="M382.375 233.066H380.754V234.687H382.375V233.066Z" fill="white"/>
<path d="M382.375 235.785H380.754V237.406H382.375V235.785Z" fill="white"/>
<path d="M384.953 178.711H383.332V180.332H384.953V178.711Z" fill="white"/>
<path d="M384.953 181.428H383.332V183.049H384.953V181.428Z" fill="white"/>
<path d="M384.953 184.146H383.332V185.767H384.953V184.146Z" fill="white"/>
<path d="M384.953 186.863H383.332V188.484H384.953V186.863Z" fill="white"/>
<path d="M384.953 189.582H383.332V191.203H384.953V189.582Z" fill="white"/>
<path d="M384.953 192.301H383.332V193.922H384.953V192.301Z" fill="white"/>
<path d="M384.953 195.018H383.332V196.639H384.953V195.018Z" fill="white"/>
<path d="M384.953 197.734H383.332V199.355H384.953V197.734Z" fill="white"/>
<path d="M384.953 200.453H383.332V202.074H384.953V200.453Z" fill="white"/>
<path d="M384.953 203.172H383.332V204.793H384.953V203.172Z" fill="white"/>
<path d="M384.953 205.889H383.332V207.51H384.953V205.889Z" fill="white"/>
<path d="M384.953 208.605H383.332V210.226H384.953V208.605Z" fill="white"/>
<path d="M384.953 211.324H383.332V212.945H384.953V211.324Z" fill="white"/>
<path d="M384.953 219.477H383.332V221.098H384.953V219.477Z" fill="white"/>
<path d="M384.953 222.195H383.332V223.816H384.953V222.195Z" fill="white"/>
<path d="M384.953 227.631H383.332V229.252H384.953V227.631Z" fill="white"/>
<path d="M384.953 230.35H383.332V231.971H384.953V230.35Z" fill="white"/>
<path d="M384.953 233.066H383.332V234.687H384.953V233.066Z" fill="white"/>
<path d="M384.953 235.785H383.332V237.406H384.953V235.785Z" fill="white"/>
<path d="M387.527 178.711H385.906V180.332H387.527V178.711Z" fill="white"/>
<path d="M387.527 181.428H385.906V183.049H387.527V181.428Z" fill="white"/>
<path d="M387.527 184.146H385.906V185.767H387.527V184.146Z" fill="white"/>
<path d="M387.527 186.863H385.906V188.484H387.527V186.863Z" fill="white"/>
<path d="M387.527 189.582H385.906V191.203H387.527V189.582Z" fill="white"/>
<path d="M387.527 192.301H385.906V193.922H387.527V192.301Z" fill="white"/>
<path d="M387.527 195.018H385.906V196.639H387.527V195.018Z" fill="white"/>
<path d="M387.527 197.734H385.906V199.355H387.527V197.734Z" fill="white"/>
<path d="M387.527 200.453H385.906V202.074H387.527V200.453Z" fill="white"/>
<path d="M387.527 203.172H385.906V204.793H387.527V203.172Z" fill="white"/>
<path d="M387.527 205.889H385.906V207.51H387.527V205.889Z" fill="white"/>
<path d="M387.527 208.605H385.906V210.226H387.527V208.605Z" fill="white"/>
<path d="M387.527 211.324H385.906V212.945H387.527V211.324Z" fill="white"/>
<path d="M387.527 214.043H385.906V215.664H387.527V214.043Z" fill="white"/>
<path d="M387.527 219.477H385.906V221.098H387.527V219.477Z" fill="white"/>
<path d="M387.527 224.914H385.906V226.535H387.527V224.914Z" fill="white"/>
<path d="M387.527 227.631H385.906V229.252H387.527V227.631Z" fill="white"/>
<path d="M387.527 230.35H385.906V231.971H387.527V230.35Z" fill="white"/>
<path d="M387.527 233.066H385.906V234.687H387.527V233.066Z" fill="white"/>
<path d="M387.527 235.785H385.906V237.406H387.527V235.785Z" fill="white"/>
<path d="M371.887 194.207H370.266V195.828H371.887V194.207Z" fill="white"/>
<path d="M371.887 196.926H370.266V198.547H371.887V196.926Z" fill="white"/>
<path d="M371.887 199.643H370.266V201.264H371.887V199.643Z" fill="white"/>
<path d="M371.887 202.359H370.266V203.98H371.887V202.359Z" fill="white"/>
<path d="M371.887 205.078H370.266V206.699H371.887V205.078Z" fill="white"/>
<path d="M371.887 207.797H370.266V209.418H371.887V207.797Z" fill="white"/>
<path d="M371.887 215.949H370.266V217.57H371.887V215.949Z" fill="white"/>
<path d="M371.887 218.668H370.266V220.289H371.887V218.668Z" fill="white"/>
<path d="M371.887 221.385H370.266V223.006H371.887V221.385Z" fill="white"/>
<path d="M371.887 224.104H370.266V225.725H371.887V224.104Z" fill="white"/>
<path d="M371.887 226.82H370.266V228.441H371.887V226.82Z" fill="white"/>
<path d="M371.887 229.539H370.266V231.16H371.887V229.539Z" fill="white"/>
<path d="M371.887 232.256H370.266V233.877H371.887V232.256Z" fill="white"/>
<path d="M374.461 194.207H372.84V195.828H374.461V194.207Z" fill="white"/>
<path d="M374.461 196.926H372.84V198.547H374.461V196.926Z" fill="white"/>
<path d="M374.461 199.643H372.84V201.264H374.461V199.643Z" fill="white"/>
<path d="M374.461 202.359H372.84V203.98H374.461V202.359Z" fill="white"/>
<path d="M374.461 205.078H372.84V206.699H374.461V205.078Z" fill="white"/>
<path d="M374.461 207.797H372.84V209.418H374.461V207.797Z" fill="white"/>
<path d="M374.461 215.949H372.84V217.57H374.461V215.949Z" fill="white"/>
<path d="M374.461 218.668H372.84V220.289H374.461V218.668Z" fill="white"/>
<path d="M374.461 221.385H372.84V223.006H374.461V221.385Z" fill="white"/>
<path d="M374.461 224.104H372.84V225.725H374.461V224.104Z" fill="white"/>
<path d="M374.461 226.82H372.84V228.441H374.461V226.82Z" fill="white"/>
<path d="M374.461 229.539H372.84V231.16H374.461V229.539Z" fill="white"/>
<path d="M374.461 234.975H372.84V236.596H374.461V234.975Z" fill="white"/>
</g>
<path opacity="0.7" d="M316.382 142.399C321.833 140.141 324.421 133.894 322.163 128.444C319.906 122.994 313.658 120.407 308.208 122.664C302.758 124.922 300.17 131.17 302.427 136.619C304.684 142.069 310.932 144.656 316.382 142.399Z" fill="white"/>
<path d="M436.168 105.34H432.949V253.981H436.168V105.34Z" fill="#407BFF"/>
<path d="M384.489 105.34H381.766V253.981H384.489V105.34Z" fill="#407BFF"/>
<path d="M333.301 105.34H330.578V253.981H333.301V105.34Z" fill="#407BFF"/>
<g opacity="0.7">
<path d="M436.168 105.34H432.949V253.981H436.168V105.34Z" fill="white"/>
<path d="M384.489 105.34H381.766V253.981H384.489V105.34Z" fill="white"/>
<path d="M333.301 105.34H330.578V253.981H333.301V105.34Z" fill="white"/>
</g>
<path d="M405.324 413.387H274.193C249.691 413.387 248.12 384.54 268.257 370.96C271.642 368.661 275.648 366.808 280.256 365.596C320.132 355.11 376.168 284.603 415.578 314.109C415.617 314.128 415.646 314.157 415.685 314.187C455.104 343.898 427.624 413.387 405.324 413.387Z" fill="#407BFF"/>
<path opacity="0.2" d="M415.578 314.109C412.27 313.886 408.255 314.817 403.938 318.435C392.725 327.844 409.778 373.108 382.962 391.938C368.001 402.443 303.45 407.079 281.905 394.191C265.995 384.674 265.794 378.71 268.258 370.96C271.643 368.661 275.649 366.808 280.257 365.596C320.132 355.111 376.168 284.603 415.578 314.109Z" fill="white"/>
<path d="M261.59 337.615C267.438 331.64 300.462 331.304 310.723 331.389C320.983 331.475 334.94 366.46 339.098 371.982C343.256 377.504 309.147 393.837 292.644 391.758C276.142 389.68 252.385 347.022 261.59 337.615Z" fill="#407BFF"/>
<path opacity="0.2" d="M261.59 337.615C267.438 331.64 300.462 331.304 310.723 331.389C320.983 331.475 334.94 366.46 339.098 371.982C343.256 377.504 309.147 393.837 292.644 391.758C276.142 389.68 252.385 347.022 261.59 337.615Z" fill="black"/>
<path d="M207.846 102.51L202.722 91.4491L200.1 85.7891L198.925 87.1901L193.707 93.4311L186.438 93.0751L184.57 92.9821L187.434 99.1651L191.382 107.688C190.713 107.676 189.983 107.826 189.273 108.155C187.387 109.029 186.365 110.828 186.988 112.175C187.612 113.522 189.646 113.906 191.532 113.032C193.416 112.159 194.438 110.362 193.818 109.016L193.821 109.014L189.259 99.1661L196.864 99.1731L201.588 92.9401L205.409 101.188C204.741 101.177 204.012 101.327 203.304 101.655C201.419 102.528 200.396 104.328 201.02 105.675C201.644 107.022 203.678 107.406 205.564 106.532C207.45 105.659 208.472 103.859 207.849 102.512C207.849 102.512 207.847 102.512 207.846 102.51Z" fill="#407BFF"/>
<path d="M203.499 198.904L199.897 195.9L198.96 195.117L196.728 205.463C196.384 205.194 195.944 204.985 195.445 204.877C194.118 204.591 192.877 205.127 192.673 206.074C192.469 207.021 193.378 208.022 194.705 208.308C196.03 208.594 197.27 208.059 197.476 207.113H197.478L198.973 200.185L202.628 202.947L203.499 198.904Z" fill="#407BFF"/>
<path d="M186.639 138.163L186.464 136.151L180.241 133.55L178.622 132.871L178.962 136.784L179.615 144.298L179.94 148.032C179.353 147.808 178.66 147.707 177.929 147.771C175.985 147.94 174.507 149.202 174.628 150.591C174.749 151.98 176.422 152.968 178.366 152.799C180.308 152.63 181.784 151.37 181.667 149.983H181.67L181.164 144.164L180.787 139.831L186.979 142.077L186.804 140.065L180.581 137.464L180.447 135.918L186.639 138.163Z" fill="#407BFF"/>
<path d="M220.331 174.258L221.953 166.195L222.783 162.069L221.584 162.363L216.255 163.679L212.44 160.587L211.461 159.791L210.904 162.558L209.8 168.045L209.304 170.512C208.945 170.239 208.487 170.029 207.97 169.925C206.596 169.648 205.321 170.22 205.124 171.202C204.926 172.184 205.881 173.204 207.255 173.48C208.628 173.756 209.901 173.186 210.101 172.206H210.103L211.547 165.027L215.684 168.063L220.741 166.554L220.027 170.101L219.531 172.566C219.172 172.294 218.715 172.085 218.199 171.981C216.825 171.704 215.55 172.276 215.353 173.258C215.155 174.24 216.11 175.26 217.484 175.536C218.858 175.813 220.133 175.241 220.33 174.259L220.331 174.258ZM221.028 165.13L215.699 166.446L211.884 163.354L212.104 162.261L216.241 165.297L221.298 163.788L221.028 165.13Z" fill="#407BFF"/>
<path d="M221.418 416.269H279.616C280.248 416.269 280.76 415.757 280.76 415.125V411.413C280.76 410.781 280.248 410.269 279.616 410.269H224.418V291.453H278.675C279.827 291.453 280.76 290.519 280.76 289.368V285.453H221.418C219.761 285.453 218.418 286.796 218.418 288.453V413.269C218.418 414.926 219.762 416.269 221.418 416.269Z" fill="#263238"/>
<g opacity="0.3">
<path d="M218.418 288.459V413.269C218.418 414.929 219.758 416.269 221.418 416.269H279.618C280.248 416.269 280.758 415.759 280.758 415.129V411.419C280.758 410.789 280.248 410.269 279.618 410.269H224.418V291.459H278.678C279.828 291.459 280.758 290.519 280.758 289.369V285.459H221.418C219.757 285.459 218.418 286.799 218.418 288.459Z" fill="white"/>
</g>
<path opacity="0.2" d="M218.418 288.455V320.285C220.418 320.795 222.418 321.285 224.418 321.755V291.455H278.678C279.828 291.455 280.758 290.515 280.758 289.365V285.455H221.418C219.757 285.455 218.418 286.795 218.418 288.455Z" fill="black"/>
<path d="M115.168 399.561L139.033 397.48V366.137H147.423V397.472L171.374 399.561C173.484 399.768 175.093 401.543 175.093 403.663V406.842H144.049H142.494H111.449V403.663C111.449 401.542 113.058 399.768 115.168 399.561Z" fill="#263238"/>
<path opacity="0.1" d="M115.168 399.561L139.033 397.48V366.137H147.423V397.472L171.374 399.561C173.484 399.768 175.093 401.543 175.093 403.663V406.842H144.049H142.494H111.449V403.663C111.449 401.542 113.058 399.768 115.168 399.561Z" fill="white"/>
<path d="M167.367 410.785C167.367 413.815 169.823 416.27 172.853 416.27C175.882 416.27 178.338 413.814 178.338 410.785C178.338 407.756 175.882 405.299 172.853 405.299C169.823 405.299 167.367 407.755 167.367 410.785Z" fill="#263238"/>
<path d="M119.177 410.785C119.177 413.815 116.721 416.27 113.692 416.27C110.662 416.27 108.207 413.814 108.207 410.785C108.207 407.756 110.663 405.299 113.692 405.299C116.721 405.299 119.177 407.755 119.177 410.785Z" fill="#263238"/>
<path d="M141.304 372.53H145.156C147.207 372.53 148.87 370.867 148.87 368.816V341.85H137.59V368.817C137.59 370.868 139.253 372.53 141.304 372.53Z" fill="#263238"/>
<path opacity="0.2" d="M141.304 372.53H145.156C147.207 372.53 148.87 370.867 148.87 368.816V341.85H137.59V368.817C137.59 370.868 139.253 372.53 141.304 372.53Z" fill="white"/>
<path d="M118.482 279.848C118.482 279.848 121.067 331.674 132.228 340.597H120.291C120.291 340.597 109.646 322.941 108.852 279.848H118.482Z" fill="#263238"/>
<path opacity="0.1" d="M118.482 279.848C118.482 279.848 121.067 331.674 132.228 340.597H120.291C120.291 340.597 109.646 322.941 108.852 279.848H118.482Z" fill="white"/>
<path d="M170.432 336.303H117.509C115.028 336.303 113.016 338.314 113.016 340.796V344.892H174.924V340.796C174.925 338.314 172.913 336.303 170.432 336.303Z" fill="#407BFF"/>
<path d="M175.472 340.596H112.467C111.469 340.596 110.66 341.405 110.66 342.403V343.083C110.66 344.081 111.469 344.89 112.467 344.89H175.472C176.47 344.89 177.279 344.081 177.279 343.083V342.403C177.279 341.405 176.47 340.596 175.472 340.596Z" fill="#263238"/>
<path opacity="0.6" d="M175.472 340.596H112.467C111.469 340.596 110.66 341.405 110.66 342.403V343.083C110.66 344.081 111.469 344.89 112.467 344.89H175.472C176.47 344.89 177.279 344.081 177.279 343.083V342.403C177.279 341.405 176.47 340.596 175.472 340.596Z" fill="white"/>
<path d="M106.757 291.194H125.88C131.482 291.194 135.528 286.16 134.916 279.951L134.1 271.663C133.489 265.454 128.452 260.42 122.85 260.42H103.727C98.1249 260.42 94.0789 265.454 94.6899 271.663L95.5059 279.951C96.1179 286.161 101.155 291.194 106.757 291.194Z" fill="#407BFF"/>
<path d="M172.744 245.547C178.146 251.838 182.482 254.862 188.5 260.5C190.223 261.98 192.881 267.082 194.93 267.751C200.007 269.187 205.587 269.393 210.931 269.739C216.612 270.01 205.761 270.882 211.5 271L212.5 278C206.644 279.077 216.977 277.776 211.023 278.191C206.504 278.505 201.91 278.66 197.315 278.297C193.89 278.098 189.727 277.214 186.789 275.231C177.713 269.157 170.74 261.019 163.887 252.714L172.744 245.547Z" fill="#C76359"/>
<path d="M188.842 259.77L186.902 261.38L181.902 265.54L178.332 268.5L176.992 269.62L168.052 264.52L164.082 262.25C164.082 262.25 165.042 259.35 166.632 256.07C168.442 252.35 171.072 248.12 174.032 247.06C175.142 246.67 176.292 246.72 177.472 247.39C183.792 251.02 188.842 259.77 188.842 259.77Z" fill="#263238"/>
<path opacity="0.2" d="M184.301 273.549C183.751 273.139 183.221 272.729 182.711 272.309C181.171 271.059 179.721 269.789 178.331 268.499L176.991 269.619L168.051 264.519L170.231 260.199L173.831 253.059C173.831 253.059 178.681 258.099 181.901 265.539C182.961 267.979 183.841 270.679 184.301 273.549Z" fill="black"/>
<path d="M191.693 405.592C191.703 405.614 191.698 405.64 191.715 405.658C191.736 405.671 191.762 405.671 191.787 405.669C192.437 406.054 193.127 406.369 193.846 406.605C194.369 406.832 194.959 406.854 195.497 406.667C195.857 406.472 196.074 406.087 196.051 405.678C196.081 405.421 195.979 405.168 195.778 405.006C195.304 404.637 194.292 404.721 193.398 404.89C194.058 404.376 194.641 403.724 194.689 403.194C194.717 402.846 194.523 402.523 194.192 402.411C193.907 402.286 193.619 402.293 193.338 402.43C192.295 402.974 191.843 405.342 191.81 405.469L191.96 405.474V405.477L191.807 405.482C191.806 405.491 191.664 405.494 191.664 405.503C191.666 405.535 191.675 405.565 191.693 405.592ZM192.337 405.133C192.266 405.153 192.205 405.17 192.145 405.187C192.361 404.41 192.817 403.135 193.441 402.819C193.58 402.739 193.745 402.721 193.898 402.769L193.989 402.804C194.251 402.918 194.281 403.072 194.264 403.187C194.18 403.758 193.184 404.691 192.337 405.133ZM192.359 405.571C193.487 405.256 195.048 404.983 195.518 405.353C195.618 405.432 195.668 405.557 195.651 405.683C195.657 405.94 195.528 406.181 195.311 406.318C194.813 406.576 193.729 406.298 192.359 405.571Z" fill="#407BFF"/>
<path d="M187.035 388.393L182.043 404.38L190.521 405.194L195.059 390.628L187.035 388.393Z" fill="#B55B52"/>
<path opacity="0.2" d="M187.035 388.393L184.555 396.311L192.918 397.501L195.061 390.629L187.035 388.393Z" fill="black"/>
<path d="M191.372 404.344L182.23 401.58C181.916 401.469 181.571 401.634 181.46 401.949C181.459 401.952 181.458 401.955 181.457 401.958L178.822 409.064C178.584 409.852 179.024 410.686 179.809 410.934C183.015 411.847 184.591 412.123 188.623 413.307C191.094 414.047 195.908 415.744 199.445 416.224C202.982 416.704 203.362 413.195 201.907 412.68C198.46 411.443 194.383 407.735 192.632 405.238C192.322 404.808 191.879 404.494 191.372 404.344Z" fill="#263238"/>
<path d="M135.852 303.255C137.023 322.221 139.901 332.62 156.972 335.084C174.044 337.549 200.707 335.084 200.707 335.084L184.382 393.492L200.695 398.961C200.695 398.961 227.958 328.403 224.341 320.744C220.724 313.084 169.317 308.006 169.317 308.006L164.646 298.318L135.852 303.255Z" fill="#407BFF"/>
<path opacity="0.4" d="M212.372 367.058C206.482 383.968 200.692 398.958 200.692 398.958L184.382 393.488L200.712 335.088C200.712 335.088 182.832 336.738 166.992 335.978C163.482 335.818 160.062 335.538 156.972 335.088C139.902 332.618 137.022 322.218 135.852 303.258L164.652 298.318L169.322 308.008C169.322 308.008 220.722 313.088 224.342 320.738C226.291 324.868 219.271 347.278 212.372 367.058Z" fill="white"/>
<path opacity="0.2" d="M212.372 367.06C206.482 383.97 200.692 398.96 200.692 398.96L184.382 393.49L200.712 335.09C200.712 335.09 182.832 336.74 166.992 335.98L167.742 310.35C167.742 310.35 199.642 310.19 211.622 317.21C214.551 318.93 213.751 343.71 212.372 367.06Z" fill="black"/>
<path d="M120.852 303.255C122.023 322.221 124.901 332.62 141.973 335.084C159.045 337.549 185.708 335.084 185.708 335.084L189.385 397.492L205.698 396.961C205.698 396.961 212.96 326.403 209.343 318.744C205.726 311.084 159.32 310.006 159.32 310.006L154.649 298.318L120.852 303.255Z" fill="#407BFF"/>
<path opacity="0.4" d="M120.852 303.255C122.023 322.221 124.901 332.62 141.973 335.084C159.045 337.549 185.708 335.084 185.708 335.084L189.385 397.492L205.698 396.961C205.698 396.961 212.96 326.403 209.343 318.744C205.726 311.084 159.32 310.006 159.32 310.006L154.649 298.318L120.852 303.255Z" fill="white"/>
<path d="M202.198 407.85C202.214 407.868 202.216 407.895 202.237 407.908C202.261 407.914 202.286 407.908 202.309 407.899C203.039 408.095 203.788 408.214 204.543 408.248C205.108 408.326 205.681 408.189 206.15 407.865C206.444 407.58 206.55 407.152 206.419 406.764C206.379 406.509 206.213 406.291 205.976 406.19C205.42 405.962 204.468 406.314 203.653 406.717C204.15 406.045 204.537 405.26 204.442 404.737C204.375 404.394 204.102 404.135 203.753 404.117C203.444 404.073 203.169 404.157 202.936 404.364C202.077 405.168 202.277 407.571 202.279 407.701L202.425 407.666L202.426 407.668L202.28 407.714C202.281 407.723 202.145 407.764 202.148 407.773C202.156 407.803 202.173 407.83 202.198 407.85ZM202.695 407.235C202.632 407.273 202.578 407.306 202.525 407.339C202.525 406.532 202.622 405.182 203.138 404.71C203.25 404.596 203.405 404.534 203.565 404.539L203.662 404.548C203.945 404.587 204.016 404.728 204.03 404.843C204.101 405.417 203.392 406.582 202.695 407.235ZM202.834 407.652C203.836 407.046 205.266 406.364 205.818 406.594C205.935 406.643 206.018 406.75 206.035 406.876C206.11 407.122 206.05 407.389 205.878 407.579C205.467 407.962 204.349 407.985 202.834 407.652Z" fill="#407BFF"/>
<path d="M193.097 392.531L192.578 409.272L200.963 407.781L201.426 392.531H193.097Z" fill="#B55B52"/>
<path opacity="0.2" d="M193.096 392.531L192.832 400.824L201.208 399.726L201.428 392.531H193.096Z" fill="black"/>
<path d="M201.556 406.733L192.007 406.523C191.674 406.501 191.387 406.752 191.364 407.085C191.364 407.088 191.364 407.092 191.363 407.095L190.731 414.647C190.713 415.47 191.36 416.155 192.183 416.183C195.516 416.202 197.108 416.045 201.311 416.104C203.89 416.154 208.983 416.496 212.519 416.01C216.055 415.523 215.479 412.041 213.939 411.935C210.287 411.668 205.364 409.19 203.007 407.255C202.597 406.925 202.085 406.741 201.556 406.733Z" fill="#263238"/>
<path d="M188.38 397.518L205.974 397.965L207.173 390.39L187.859 390.271L188.38 397.518Z" fill="#407BFF"/>
<path opacity="0.2" d="M188.38 397.518L205.974 397.965L207.173 390.39L187.859 390.271L188.38 397.518Z" fill="white"/>
<path d="M177.472 247.388C177.472 247.388 167.012 274.998 166.542 303.258H120.852C120.852 303.258 120.852 277.168 128.602 256.638C130.062 252.768 131.802 249.098 133.872 245.838C134.882 244.218 135.992 242.688 137.182 241.298C137.182 241.298 146.612 238.368 156.172 239.318C165.722 240.278 177.472 247.388 177.472 247.388Z" fill="#263238"/>
<path d="M149.629 239.983L160.854 248.514L162.575 245.057C162.058 242.481 162.201 241.013 164.081 238.846L158.862 226.324C157.432 231.376 154.267 237.871 149.629 239.983Z" fill="#C76359"/>
<path opacity="0.2" d="M160.986 231.43L164.072 238.843C163.4 239.598 162.793 240.41 162.259 241.268C160.354 239.931 158.682 236.242 159.553 233.982C159.868 233.05 160.354 232.185 160.986 231.43Z" fill="black"/>
<path d="M179.665 228.149C179.016 231.631 176.173 234.023 173.316 233.49C170.458 232.957 168.668 229.703 169.317 226.22C169.966 222.738 172.809 220.346 175.666 220.879C178.523 221.412 180.314 224.667 179.665 228.149Z" fill="black"/>
<path d="M180.968 218.272C181.252 221.295 179.516 227.007 175.966 224.267C172.416 221.528 180.48 213.077 180.968 218.272Z" fill="#263238"/>
<path d="M159.75 217.724C157.754 224.908 156.219 229.015 158.544 233.821C162.041 241.052 171.885 240.746 175.999 234.284C179.702 228.468 182.344 217.696 176.387 212.581C170.518 207.541 161.745 210.54 159.75 217.724Z" fill="#D6766D"/>
<path d="M156.877 209.404L165.172 209.658L165.026 214.419C164.876 214.318 164.707 214.219 164.567 214.117C164.567 214.117 163.511 221.005 159.378 223.072C154.33 218.573 153.272 211.772 156.877 209.404Z" fill="#263238"/>
<path d="M155.007 222.65C154.944 224.655 155.82 226.496 156.976 227.671C158.715 229.439 160.838 228.18 161.404 225.895C161.914 223.838 161.622 220.44 159.372 219.529C157.154 218.631 155.079 220.357 155.007 222.65Z" fill="#B55B52"/>
<path d="M169.796 223.276C169.598 223.849 169.743 224.416 170.119 224.542C170.496 224.668 170.961 224.305 171.159 223.732C171.357 223.159 171.212 222.592 170.835 222.466C170.459 222.34 169.994 222.703 169.796 223.276Z" fill="#263238"/>
<path d="M176.307 225.452C176.109 226.025 176.254 226.592 176.63 226.718C177.006 226.844 177.472 226.481 177.67 225.908C177.868 225.335 177.723 224.768 177.347 224.642C176.97 224.517 176.505 224.879 176.307 225.452Z" fill="#263238"/>
<path d="M174.137 225.045C174.137 225.045 174.38 228.677 175.302 230.708C173.988 231.267 172.406 230.254 172.406 230.254L174.137 225.045Z" fill="#A73A38"/>
<path d="M168.564 231.416C168.789 231.527 169.033 231.628 169.297 231.716C169.39 231.747 169.492 231.697 169.524 231.604C169.557 231.511 169.504 231.41 169.413 231.379C166.884 230.531 166.312 228.383 166.306 228.361C166.282 228.266 166.184 228.21 166.089 228.234C165.993 228.259 165.935 228.356 165.959 228.451C165.981 228.536 166.475 230.39 168.564 231.416Z" fill="#263238"/>
<path d="M168.514 220.513C168.625 220.568 168.763 220.563 168.874 220.488C170.198 219.595 171.417 220.083 171.429 220.088C171.611 220.163 171.821 220.078 171.898 219.897C171.975 219.716 171.889 219.508 171.708 219.433C171.644 219.406 170.117 218.794 168.475 219.902C168.311 220.013 168.267 220.233 168.378 220.395C168.413 220.447 168.461 220.487 168.514 220.513Z" fill="#263238"/>
<path d="M179.881 224.161C179.942 224.191 180.012 224.204 180.085 224.195C180.281 224.17 180.421 223.992 180.397 223.797C180.157 221.846 178.683 221.13 178.621 221.09C178.444 221.005 178.229 221.079 178.142 221.256C178.055 221.432 178.128 221.643 178.303 221.729C178.366 221.756 179.495 222.322 179.687 223.888C179.701 224.01 179.778 224.11 179.881 224.161Z" fill="#263238"/>
<path d="M161.878 215.699C161.878 215.699 162.047 215.879 162.352 216.087C162.961 216.503 164.111 217.033 165.534 216.463C167.67 215.609 168.762 209.816 174.381 213.237C174.381 213.237 176.43 212.787 177.795 214.746C179.16 216.705 177.604 223.36 180.889 222.675C184.174 221.99 183.69 220.956 183.69 220.956C183.69 220.956 182.747 221.456 182.246 220.965C182.246 220.965 184.037 219.695 183.378 217.676C183.378 217.676 182.527 218.538 182.018 218.316C182.018 218.316 183.255 214.952 181.752 210.164C180.249 205.376 168.761 205.54 168.761 205.54C168.761 205.54 167.506 203.028 162.225 204.309C156.944 205.591 154.116 211.618 154.726 214.388L161.878 215.699Z" fill="#263238"/>
<path d="M163.313 223.995C162.664 227.477 159.821 229.869 156.964 229.336C154.106 228.803 152.316 225.549 152.965 222.066C153.614 218.584 156.457 216.192 159.314 216.725C162.172 217.258 163.962 220.513 163.313 223.995Z" fill="black"/>
<path d="M158.816 218.659C160.925 210.904 164.297 205.404 175.302 206.177L174.648 205.383L168.634 204.298C168.634 204.298 157.701 203.947 155.223 218.66L158.816 218.659Z" fill="#263238"/>
<path opacity="0.3" d="M158.816 218.659C160.925 210.904 164.297 205.404 175.302 206.177L174.648 205.383L168.634 204.298C168.634 204.298 157.701 203.947 155.223 218.66L158.816 218.659Z" fill="white"/>
<path d="M161.065 223.435C160.515 226.385 158.108 228.41 155.687 227.959C153.266 227.508 151.75 224.751 152.3 221.802C152.85 218.852 155.258 216.827 157.678 217.278C160.098 217.729 161.615 220.485 161.065 223.435Z" fill="#263238"/>
<path opacity="0.4" d="M161.065 223.435C160.515 226.385 158.108 228.41 155.687 227.959C153.266 227.508 151.75 224.751 152.3 221.802C152.85 218.852 155.258 216.827 157.678 217.278C160.098 217.729 161.615 220.485 161.065 223.435Z" fill="white"/>
<path opacity="0.2" d="M201.556 406.733L192.007 406.523C191.674 406.501 191.387 406.752 191.364 407.085C191.364 407.088 191.364 407.092 191.363 407.095L190.731 414.647C190.713 415.47 191.36 416.155 192.183 416.183C195.516 416.202 197.108 416.045 201.311 416.104C203.89 416.154 208.983 416.496 212.519 416.01C216.055 415.523 215.479 412.041 213.939 411.935C210.287 411.668 205.364 409.19 203.007 407.255C202.597 406.925 202.085 406.741 201.556 406.733Z" fill="white"/>
<path d="M212.566 272L220.188 272.043L216.053 280.756C216.053 280.756 209.587 279.275 210.021 275.746L212.566 272Z" fill="#C76359"/>
<path d="M225.094 275.914L221.341 282.959L216.055 280.756L220.19 272.043L225.094 275.914Z" fill="#B55B52"/>
<path d="M183 276.344L185.935 273.523L188.044 277.99C188.044 277.99 184.943 279.898 183.614 278.55L183 276.344Z" fill="#B55B52"/>
<path d="M189.45 273L190.999 276.763L188.043 277.99L185.934 273.524L189.45 273Z" fill="#C76359"/>
<path opacity="0.2" d="M155.978 266.899L136.287 269C132.797 265.161 129.981 260.888 128.5 257C130.044 253.201 131.811 249.201 134 246.001C138.59 245.569 144.789 246.242 148.808 250.179C156.771 257.984 155.978 266.899 155.978 266.899Z" fill="black"/>
<path d="M144.411 246.816C146.764 251.754 152.727 257.766 155.5 262.5C157.785 266.239 157.229 268.484 160.5 271C166.678 270.944 180.977 274 187.477 272.5V274.5L189.977 277C180.977 282 169.359 280.392 157.977 279C148.795 277.34 142.161 267.112 137.974 259.666C136.574 256.957 135.237 254.337 134 251.447L144.411 246.816Z" fill="#C76359"/>
<path d="M137.183 241.299C131.042 243.425 128.827 253.553 135.849 266.999L153.5 259C153.5 259 147.467 249.599 145.084 245.874C142.701 242.149 137.183 241.299 137.183 241.299Z" fill="#263238"/>
<path d="M246.022 244.475L233.505 271.952C233.155 272.721 232.14 273.345 231.241 273.345H186.451C185.551 273.345 185.105 272.721 185.456 271.952L197.973 244.475C198.323 243.706 199.338 243.082 200.238 243.082H245.028C245.927 243.082 246.373 243.706 246.022 244.475Z" fill="#263238"/>
<path opacity="0.4" d="M246.023 244.477L233.506 271.954C233.156 272.723 232.141 273.347 231.241 273.347H186.451C185.551 273.347 185.105 272.723 185.456 271.954L197.973 244.477C198.323 243.708 199.338 243.084 200.238 243.084H245.028C245.927 243.084 246.373 243.708 246.023 244.477Z" fill="white"/>
<path opacity="0.4" d="M246.022 244.475L233.505 271.952C233.155 272.721 232.14 273.345 231.241 273.345H187.451C186.551 273.345 186.105 272.721 186.456 271.952L198.973 244.475C199.323 243.706 200.338 243.082 201.238 243.082H245.028C245.927 243.082 246.373 243.706 246.022 244.475Z" fill="white"/>
<path opacity="0.4" d="M220.166 258.213C219.185 260.367 216.674 262.114 214.559 262.114C212.444 262.114 211.525 260.368 212.506 258.213C213.487 256.058 215.998 254.312 218.113 254.312C220.228 254.312 221.147 256.058 220.166 258.213Z" fill="white"/>
<path opacity="0.4" d="M197.707 252.699L192.681 263.733C192.424 264.297 191.674 264.759 191.004 264.759H188.734L194.699 251.666H196.969C197.638 251.664 197.968 252.126 197.707 252.699Z" fill="black"/>
<path d="M211.511 276.889H196.881C195.571 276.889 194.771 275.449 195.451 274.329L203.161 261.669C203.271 261.499 203.471 261.389 203.681 261.399L204.441 261.449L205.521 261.509C205.901 261.529 206.151 261.909 206.021 262.269L201.761 274.119C201.481 274.919 202.071 275.769 202.931 275.769H210.161C210.481 275.769 210.771 275.919 210.961 276.169L211.511 276.889Z" fill="#263238"/>
<path opacity="0.2" d="M211.511 276.889H197.881C196.571 276.889 195.771 275.449 196.451 274.329L204.161 261.669C204.231 261.569 204.331 261.489 204.441 261.449L205.521 261.509C205.901 261.529 206.151 261.909 206.021 262.269L201.761 274.119C201.481 274.919 202.071 275.769 202.931 275.769H210.161C210.481 275.769 210.771 275.919 210.961 276.169L211.511 276.889Z" fill="white"/>
<path d="M233.515 276.889H218.885C217.575 276.889 216.775 275.449 217.455 274.329L225.165 261.669C225.275 261.499 225.475 261.389 225.685 261.399L226.445 261.449L227.525 261.509C227.905 261.529 228.155 261.909 228.025 262.269L223.765 274.119C223.485 274.919 224.075 275.769 224.935 275.769H232.165C232.485 275.769 232.775 275.919 232.965 276.169L233.515 276.889Z" fill="#263238"/>
<path opacity="0.2" d="M233.515 276.889H219.885C218.575 276.889 217.775 275.449 218.455 274.329L226.165 261.669C226.235 261.569 226.335 261.489 226.445 261.449L227.525 261.509C227.905 261.529 228.155 261.909 228.025 262.269L223.765 274.119C223.485 274.919 224.075 275.769 224.935 275.769H232.165C232.485 275.769 232.775 275.919 232.965 276.169L233.515 276.889Z" fill="white"/>
<path d="M267.527 276.888H250.492V272.646C250.492 272.084 250.947 271.629 251.509 271.629H266.509C267.071 271.629 267.526 272.084 267.526 272.646V276.888H267.527Z" fill="#263238"/>
<path opacity="0.2" d="M267.527 276.888H250.492V272.646C250.492 272.084 250.947 271.629 251.509 271.629H266.509C267.071 271.629 267.526 272.084 267.526 272.646V276.888H267.527Z" fill="white"/>
<path d="M264.67 275.343H253.348C252.916 275.343 252.566 274.993 252.566 274.562V253.097C252.566 252.665 252.916 252.316 253.347 252.316H264.669C265.101 252.316 265.45 252.666 265.45 253.097V274.562C265.451 274.993 265.102 275.343 264.67 275.343Z" fill="#263238"/>
<path d="M264.67 275.343H253.348C252.916 275.343 252.566 274.993 252.566 274.562V253.097C252.566 252.665 252.916 252.316 253.347 252.316H264.669C265.101 252.316 265.45 252.666 265.45 253.097V274.562C265.451 274.993 265.102 275.343 264.67 275.343Z" fill="#407BFF"/>
<path opacity="0.2" d="M264.67 275.343H253.348C252.916 275.343 252.566 274.993 252.566 274.562V253.097C252.566 252.665 252.916 252.316 253.347 252.316H264.669C265.101 252.316 265.45 252.666 265.45 253.097V274.562C265.451 274.993 265.102 275.343 264.67 275.343Z" fill="black"/>
<path d="M264.627 253.895H253.395V273.765H264.627V253.895Z" fill="#263238"/>
<path d="M264.627 253.895H253.395V256.504H264.627V253.895Z" fill="#407BFF"/>
<path opacity="0.2" d="M264.627 253.895H253.395V256.504H264.627V253.895Z" fill="white"/>
<path d="M264.627 270.111H253.395V273.764H264.627V270.111Z" fill="#407BFF"/>
<path opacity="0.2" d="M264.627 270.111H253.395V273.764H264.627V270.111Z" fill="white"/>
<path d="M254.46 261.951H254.109V264.391H254.46V261.951Z" fill="#407BFF"/>
<path d="M258.007 261.951H257.656V264.391H258.007V261.951Z" fill="#407BFF"/>
<path d="M255.05 262.773H254.699V263.569H255.05V262.773Z" fill="#407BFF"/>
<path d="M261.55 262.773H261.199V263.569H261.55V262.773Z" fill="#407BFF"/>
<path d="M257.413 262.574H257.062V263.768H257.413V262.574Z" fill="#407BFF"/>
<path d="M263.913 262.574H263.562V263.768H263.913V262.574Z" fill="#407BFF"/>
<path d="M260.96 262.574H260.609V263.768H260.96V262.574Z" fill="#407BFF"/>
<path d="M255.64 261.951H255.289V264.391H255.64V261.951Z" fill="#407BFF"/>
<path d="M260.367 261.951H260.016V264.391H260.367V261.951Z" fill="#407BFF"/>
<path d="M262.14 261.951H261.789V264.391H262.14V261.951Z" fill="#407BFF"/>
<path d="M256.824 261.725H256.473V264.617H256.824V261.725Z" fill="#407BFF"/>
<path d="M263.324 261.725H262.973V264.617H263.324V261.725Z" fill="#407BFF"/>
<path d="M259.187 261.725H258.836V264.617H259.187V261.725Z" fill="#407BFF"/>
<path d="M256.234 261.18H255.883V265.162H256.234V261.18Z" fill="#407BFF"/>
<path d="M259.777 261.18H259.426V265.162H259.777V261.18Z" fill="#407BFF"/>
<path d="M258.597 261.18H258.246V265.162H258.597V261.18Z" fill="#407BFF"/>
<path d="M262.73 261.18H262.379V265.162H262.73V261.18Z" fill="#407BFF"/>
<g opacity="0.5">
<path d="M254.46 261.951H254.109V264.391H254.46V261.951Z" fill="white"/>
<path d="M258.007 261.951H257.656V264.391H258.007V261.951Z" fill="white"/>
<path d="M255.05 262.773H254.699V263.569H255.05V262.773Z" fill="white"/>
<path d="M261.55 262.773H261.199V263.569H261.55V262.773Z" fill="white"/>
<path d="M257.413 262.574H257.062V263.768H257.413V262.574Z" fill="white"/>
<path d="M263.913 262.574H263.562V263.768H263.913V262.574Z" fill="white"/>
<path d="M260.96 262.574H260.609V263.768H260.96V262.574Z" fill="white"/>
<path d="M255.64 261.951H255.289V264.391H255.64V261.951Z" fill="white"/>
<path d="M260.367 261.951H260.016V264.391H260.367V261.951Z" fill="white"/>
<path d="M262.14 261.951H261.789V264.391H262.14V261.951Z" fill="white"/>
<path d="M256.824 261.725H256.473V264.617H256.824V261.725Z" fill="white"/>
<path d="M263.324 261.725H262.973V264.617H263.324V261.725Z" fill="white"/>
<path d="M259.187 261.725H258.836V264.617H259.187V261.725Z" fill="white"/>
<path d="M256.234 261.18H255.883V265.162H256.234V261.18Z" fill="white"/>
<path d="M259.777 261.18H259.426V265.162H259.777V261.18Z" fill="white"/>
<path d="M258.597 261.18H258.246V265.162H258.597V261.18Z" fill="white"/>
<path d="M262.73 261.18H262.379V265.162H262.73V261.18Z" fill="white"/>
</g>
<path d="M261.477 271.168V272.578L262.374 271.873L261.477 271.168Z" fill="white"/>
<path d="M262.633 271.168H262.422V272.578H262.633V271.168Z" fill="white"/>
<path d="M256.55 272.578V271.168L255.652 271.873L256.55 272.578Z" fill="white"/>
<path d="M255.391 272.578H255.602V271.168H255.391V272.578Z" fill="white"/>
<path d="M259.897 271.873C259.897 272.422 259.5 272.867 259.011 272.867C258.521 272.867 258.125 272.422 258.125 271.873C258.125 271.324 258.522 270.879 259.011 270.879C259.5 270.879 259.897 271.324 259.897 271.873Z" fill="white"/>
<path d="M258.684 272.393H258.895V271.354H258.684V272.393Z" fill="#407BFF"/>
<path d="M259.125 272.393H259.336V271.354H259.125V272.393Z" fill="#407BFF"/>
<path d="M146.367 416.269H204.565C205.197 416.269 205.709 415.757 205.709 415.125V411.413C205.709 410.781 205.197 410.269 204.565 410.269H149.367V291.453H203.624C204.776 291.453 205.709 290.519 205.709 289.368V285.453H146.367C144.71 285.453 143.367 286.796 143.367 288.453V413.269C143.367 414.926 144.71 416.269 146.367 416.269Z" fill="#263238"/>
<g opacity="0.4">
<path d="M146.367 416.269H204.565C205.197 416.269 205.709 415.757 205.709 415.125V411.413C205.709 410.781 205.197 410.269 204.565 410.269H149.367V291.453H203.624C204.776 291.453 205.709 290.519 205.709 289.368V285.453H146.367C144.71 285.453 143.367 286.796 143.367 288.453V413.269C143.367 414.926 144.71 416.269 146.367 416.269Z" fill="white"/>
</g>
<path d="M138.911 286.443H292.33C293.403 286.443 294.273 285.573 294.273 284.5V279.775H136.969V284.5C136.969 285.573 137.839 286.443 138.911 286.443Z" fill="#407BFF"/>
<path opacity="0.2" d="M136.969 283.109H294.273V279.775H136.969V283.109Z" fill="black"/>
<path d="M133.671 280.645H297.572C298.609 280.645 299.45 279.804 299.45 278.767C299.45 277.73 298.609 276.889 297.572 276.889H133.671C132.634 276.889 131.793 277.73 131.793 278.767C131.793 279.804 132.634 280.645 133.671 280.645Z" fill="#407BFF"/>
<path d="M90.4216 395.992C89.5956 394.606 90.7606 392.521 92.3736 392.497C91.6666 390.509 92.3646 388.105 94.0256 386.803C94.2346 386.639 94.4756 386.485 94.7426 386.484C95.0286 386.483 95.2806 386.657 95.5126 386.824C97.0326 387.916 98.5526 389.008 100.072 390.1C100.42 390.35 100.78 390.614 100.977 390.995C101.909 392.8 98.5486 395.114 99.9306 396.604C100.327 397.032 100.966 397.12 101.461 397.43C102.546 398.108 102.677 399.598 103.183 400.774C103.689 401.95 105.452 402.862 106.127 401.774C105.629 400.646 107.136 399.675 108.36 399.532C109.568 399.391 110.863 399.322 111.539 398.173C113.276 399.691 117.165 395.455 117.076 393.747C118.504 393.856 119.476 395.193 119.789 396.53C120.113 397.918 119.913 399.364 119.935 400.787C119.979 403.552 120.871 406.261 120.822 409.026C120.784 411.178 119.953 413.567 117.982 414.433C117.034 414.85 115.962 414.85 114.926 414.843C107.448 414.795 99.9696 414.747 92.4916 414.699C91.9536 414.695 91.3916 414.687 90.9146 414.437C89.9026 413.908 89.6886 412.579 89.5946 411.441C89.1926 406.567 88.7916 401.694 88.3906 396.82C89.0676 396.544 89.7446 396.268 90.4216 395.992Z" fill="#407BFF"/>
<path opacity="0.3" d="M90.4216 395.992C89.5956 394.606 90.7606 392.521 92.3736 392.497C91.6666 390.509 92.3646 388.105 94.0256 386.803C94.2346 386.639 94.4756 386.485 94.7426 386.484C95.0286 386.483 95.2806 386.657 95.5126 386.824C97.0326 387.916 98.5526 389.008 100.072 390.1C100.42 390.35 100.78 390.614 100.977 390.995C101.909 392.8 98.5486 395.114 99.9306 396.604C100.327 397.032 100.966 397.12 101.461 397.43C102.546 398.108 102.677 399.598 103.183 400.774C103.689 401.95 105.452 402.862 106.127 401.774C105.629 400.646 107.136 399.675 108.36 399.532C109.568 399.391 110.863 399.322 111.539 398.173C113.276 399.691 117.165 395.455 117.076 393.747C118.504 393.856 119.476 395.193 119.789 396.53C120.113 397.918 119.913 399.364 119.935 400.787C119.979 403.552 120.871 406.261 120.822 409.026C120.784 411.178 119.953 413.567 117.982 414.433C117.034 414.85 115.962 414.85 114.926 414.843C107.448 414.795 99.9696 414.747 92.4916 414.699C91.9536 414.695 91.3916 414.687 90.9146 414.437C89.9026 413.908 89.6886 412.579 89.5946 411.441C89.1926 406.567 88.7916 401.694 88.3906 396.82C89.0676 396.544 89.7446 396.268 90.4216 395.992Z" fill="white"/>
<path d="M85.1953 372.281L85.4813 375.798L85.6863 378.309L86.2093 384.852L86.5123 388.598L86.9213 393.595L87.0933 395.738L87.1423 396.376L87.3473 398.887L87.6253 402.347L87.7973 404.49L87.9773 406.657L88.1813 409.176L88.3363 411.098L88.5083 413.233L88.5823 414.165H93.1703H97.0383H102.624H106.492H112.078H115.947H120.527L120.601 413.233L120.773 411.09L120.928 409.184L121.133 406.665L121.313 404.489L121.485 402.346L121.763 398.895L121.967 396.376L122.024 395.738L122.196 393.595L122.597 388.598L122.9 384.844L123.432 378.309L123.636 375.798L123.922 372.281H120.004H117.477H110.55H108.023H101.096H98.5693H91.6323H89.1133H85.1953ZM86.9623 373.916H87.6903L87.0193 374.587L86.9623 373.916ZM89.9963 373.916H90.7493L93.9473 377.114L90.3733 380.688L87.2573 377.572L87.1923 376.722L89.9963 373.916ZM87.9033 385.473L90.3733 383.003L93.9473 386.569L90.3733 390.143L88.0913 387.861L87.9033 385.473ZM121.019 387.861L118.745 390.143L115.171 386.569L118.745 383.003L121.215 385.473L121.019 387.861ZM95.1003 378.268L98.6743 381.842L95.1003 385.416L91.5263 381.842L95.1003 378.268ZM95.1003 375.961L93.0553 373.916H97.1443L95.1003 375.961ZM99.8273 383.003L103.401 386.569L99.8273 390.143L96.2613 386.569L99.8273 383.003ZM104.555 394.87L100.989 391.296L104.555 387.73L108.129 391.296L104.555 394.87ZM109.282 392.458L112.856 396.032L109.29 399.598L105.716 396.024L109.282 392.458ZM103.401 396.024L99.8273 399.598L96.2613 396.032L99.8273 392.458L103.401 396.024ZM100.989 381.842L104.555 378.268L108.129 381.842L104.555 385.416L100.989 381.842ZM109.282 383.003L112.856 386.569L109.282 390.143L105.716 386.569L109.282 383.003ZM110.443 381.842L114.017 378.268L117.583 381.842L114.017 385.416L110.443 381.842ZM117.583 391.296L114.017 394.87L110.443 391.296L114.017 387.73L117.583 391.296ZM114.018 397.185L117.584 400.759L114.018 404.325L110.444 400.759L114.018 397.185ZM112.856 405.486L109.282 409.06L105.716 405.486L109.29 401.912L112.856 405.486ZM104.555 404.325L100.989 400.759L104.555 397.185L108.129 400.759L104.555 404.325ZM103.401 405.486L99.8273 409.06L96.2613 405.486L99.8273 401.912L103.401 405.486ZM98.6743 410.214L96.3603 412.529H93.8413L91.5263 410.214L95.1003 406.64L98.6743 410.214ZM95.1003 404.325L91.5263 400.759L95.1003 397.185L98.6743 400.759L95.1003 404.325ZM95.1003 394.87L91.5263 391.296L95.1003 387.73L98.6743 391.296L95.1003 394.87ZM99.4513 373.916H100.204L103.402 377.114L99.8283 380.688L96.2623 377.114L99.4513 373.916ZM102.518 373.916H106.599L104.554 375.961L102.518 373.916ZM108.906 373.916H109.658L112.856 377.114L109.282 380.688L105.716 377.114L108.906 373.916ZM116.054 373.916L114.018 375.961L111.973 373.916H116.054ZM119.121 373.916L121.918 376.722L121.853 377.573L118.745 380.689L115.171 377.115L118.369 373.917H119.121V373.916ZM122.147 373.916L122.09 374.579L121.427 373.916H122.147ZM121.387 383.33L119.898 381.841L121.648 380.091L121.387 383.33ZM120.675 392.073L119.898 391.296L120.814 390.38L120.675 392.073ZM120.184 398.158L118.745 399.597L115.171 396.031L118.745 392.457L120.504 394.223L120.184 398.158ZM119.972 400.833L119.898 400.759L119.98 400.677L119.972 400.833ZM119.35 408.447L118.745 409.052L115.171 405.486L118.745 401.912L119.8 402.967L119.35 408.447ZM117.583 412.528L118.744 411.367L119.088 411.711L119.023 412.529L117.583 412.528ZM115.277 412.528H112.758L110.444 410.213L114.018 406.639L117.584 410.213L115.277 412.528ZM108.12 412.528L109.281 411.367L110.442 412.528H108.12ZM103.295 412.528L100.989 410.213L104.555 406.639L108.129 410.213L105.815 412.528H103.295ZM98.6663 412.528L99.8273 411.367L100.988 412.528H98.6663ZM90.0293 411.711L90.3733 411.367L91.5343 412.528H90.0953L90.0293 411.711ZM89.3183 402.967L90.3733 401.912L93.9473 405.486L90.3733 409.052L89.7603 408.447L89.3183 402.967ZM89.1303 400.669L89.2203 400.759L89.1463 400.833L89.1303 400.669ZM88.6063 394.224L90.3733 392.458L93.9473 396.032L90.3733 399.598L88.9253 398.159L88.6063 394.224ZM88.2953 390.38L89.2193 391.296L88.4343 392.081L88.2953 390.38ZM87.4613 380.083L89.2203 381.841L87.7233 383.338L87.4613 380.083Z" fill="#407BFF"/>
<g opacity="0.6">
<path d="M85.1953 372.281L85.4813 375.798L85.6863 378.309L86.2093 384.852L86.5123 388.598L86.9213 393.595L87.0933 395.738L87.1423 396.376L87.3473 398.887L87.6253 402.347L87.7973 404.49L87.9773 406.657L88.1813 409.176L88.3363 411.098L88.5083 413.233L88.5823 414.165H93.1703H97.0383H102.624H106.492H112.078H115.947H120.527L120.601 413.233L120.773 411.09L120.928 409.184L121.133 406.665L121.313 404.489L121.485 402.346L121.763 398.895L121.967 396.376L122.024 395.738L122.196 393.595L122.597 388.598L122.9 384.844L123.432 378.309L123.636 375.798L123.922 372.281H120.004H117.477H110.55H108.023H101.096H98.5693H91.6323H89.1133H85.1953ZM86.9623 373.916H87.6903L87.0193 374.587L86.9623 373.916ZM89.9963 373.916H90.7493L93.9473 377.114L90.3733 380.688L87.2573 377.572L87.1923 376.722L89.9963 373.916ZM87.9033 385.473L90.3733 383.003L93.9473 386.569L90.3733 390.143L88.0913 387.861L87.9033 385.473ZM121.019 387.861L118.745 390.143L115.171 386.569L118.745 383.003L121.215 385.473L121.019 387.861ZM95.1003 378.268L98.6743 381.842L95.1003 385.416L91.5263 381.842L95.1003 378.268ZM95.1003 375.961L93.0553 373.916H97.1443L95.1003 375.961ZM99.8273 383.003L103.401 386.569L99.8273 390.143L96.2613 386.569L99.8273 383.003ZM104.555 394.87L100.989 391.296L104.555 387.73L108.129 391.296L104.555 394.87ZM109.282 392.458L112.856 396.032L109.29 399.598L105.716 396.024L109.282 392.458ZM103.401 396.024L99.8273 399.598L96.2613 396.032L99.8273 392.458L103.401 396.024ZM100.989 381.842L104.555 378.268L108.129 381.842L104.555 385.416L100.989 381.842ZM109.282 383.003L112.856 386.569L109.282 390.143L105.716 386.569L109.282 383.003ZM110.443 381.842L114.017 378.268L117.583 381.842L114.017 385.416L110.443 381.842ZM117.583 391.296L114.017 394.87L110.443 391.296L114.017 387.73L117.583 391.296ZM114.018 397.185L117.584 400.759L114.018 404.325L110.444 400.759L114.018 397.185ZM112.856 405.486L109.282 409.06L105.716 405.486L109.29 401.912L112.856 405.486ZM104.555 404.325L100.989 400.759L104.555 397.185L108.129 400.759L104.555 404.325ZM103.401 405.486L99.8273 409.06L96.2613 405.486L99.8273 401.912L103.401 405.486ZM98.6743 410.214L96.3603 412.529H93.8413L91.5263 410.214L95.1003 406.64L98.6743 410.214ZM95.1003 404.325L91.5263 400.759L95.1003 397.185L98.6743 400.759L95.1003 404.325ZM95.1003 394.87L91.5263 391.296L95.1003 387.73L98.6743 391.296L95.1003 394.87ZM99.4513 373.916H100.204L103.402 377.114L99.8283 380.688L96.2623 377.114L99.4513 373.916ZM102.518 373.916H106.599L104.554 375.961L102.518 373.916ZM108.906 373.916H109.658L112.856 377.114L109.282 380.688L105.716 377.114L108.906 373.916ZM116.054 373.916L114.018 375.961L111.973 373.916H116.054ZM119.121 373.916L121.918 376.722L121.853 377.573L118.745 380.689L115.171 377.115L118.369 373.917H119.121V373.916ZM122.147 373.916L122.09 374.579L121.427 373.916H122.147ZM121.387 383.33L119.898 381.841L121.648 380.091L121.387 383.33ZM120.675 392.073L119.898 391.296L120.814 390.38L120.675 392.073ZM120.184 398.158L118.745 399.597L115.171 396.031L118.745 392.457L120.504 394.223L120.184 398.158ZM119.972 400.833L119.898 400.759L119.98 400.677L119.972 400.833ZM119.35 408.447L118.745 409.052L115.171 405.486L118.745 401.912L119.8 402.967L119.35 408.447ZM117.583 412.528L118.744 411.367L119.088 411.711L119.023 412.529L117.583 412.528ZM115.277 412.528H112.758L110.444 410.213L114.018 406.639L117.584 410.213L115.277 412.528ZM108.12 412.528L109.281 411.367L110.442 412.528H108.12ZM103.295 412.528L100.989 410.213L104.555 406.639L108.129 410.213L105.815 412.528H103.295ZM98.6663 412.528L99.8273 411.367L100.988 412.528H98.6663ZM90.0293 411.711L90.3733 411.367L91.5343 412.528H90.0953L90.0293 411.711ZM89.3183 402.967L90.3733 401.912L93.9473 405.486L90.3733 409.052L89.7603 408.447L89.3183 402.967ZM89.1303 400.669L89.2203 400.759L89.1463 400.833L89.1303 400.669ZM88.6063 394.224L90.3733 392.458L93.9473 396.032L90.3733 399.598L88.9253 398.159L88.6063 394.224ZM88.2953 390.38L89.2193 391.296L88.4343 392.081L88.2953 390.38ZM87.4613 380.083L89.2203 381.841L87.7233 383.338L87.4613 380.083Z" fill="white"/>
</g>
<path d="M124.507 375.375H84.6078C83.6998 375.375 82.9648 374.639 82.9648 373.732V372.465C82.9648 371.557 83.7008 370.822 84.6078 370.822H124.507C125.415 370.822 126.15 371.558 126.15 372.465V373.732C126.151 374.639 125.415 375.375 124.507 375.375Z" fill="#407BFF"/>
<path d="M87.7211 416.27H121.393C122.301 416.27 123.036 415.534 123.036 414.627V413.36C123.036 412.452 122.3 411.717 121.393 411.717H87.7211C86.8131 411.717 86.0781 412.453 86.0781 413.36V414.627C86.0781 415.534 86.8141 416.27 87.7211 416.27Z" fill="#407BFF"/>
</svg>
